<?xml version="1.0" encoding="utf-8"?>
<!-- Generator: Adobe Illustrator 27.5.0, SVG Export Plug-In . SVG Version: 6.00 Build 0)  -->
<svg version="1.1" xmlns="http://www.w3.org/2000/svg" xmlns:xlink="http://www.w3.org/1999/xlink" x="0px" y="0px"
	 viewBox="0 0 500 500" style="enable-background:new 0 0 500 500;" xml:space="preserve">
<g id="BACKGROUND">
	<rect style="fill:#70A0F7;" width="500" height="500"/>
</g>
<g id="OBJECTS">
	<g>
		<g>
			<g>
				<path style="fill:#F98B5A;" d="M269.859,262.739c-0.972,0.63-2.153,0.371-2.639-0.576c-0.532-1.038-1.149-1.706-1.651-1.786
					c-0.061-0.01-0.118-0.005-0.173,0.001l-0.399,0.159c0,0-2.795,1.709-3.151-1.297c0.06-1.659,1.812-2.454,2.562-2.719
					c0.021-0.007,0.042-0.014,0.064-0.022c1.215-0.409,4.117-0.82,6.269,3.384C271.227,260.831,270.832,262.109,269.859,262.739z"/>
			</g>
			<g>
				<path style="fill:#E5E5E5;" d="M278.797,270.16l13.53-8.608c1.665-0.772,3.449-0.052,3.985,1.609
					c0.536,1.66-0.379,3.632-2.043,4.404l-13.529,8.608c-2.711,1.257-5.701,0.553-7.272-1.712l-8.499-12.855l5.523-3.972
					L278.797,270.16z"/>
			</g>
		</g>
		<path style="fill:#5E99EF;" d="M82.423,365.852c81.629-1.046,234.809-2.393,369.163-0.12c2.352,0.04,2.362,2.069,0.01,2.115
			c-68.814,1.349-205.701,3.082-369.184,0.119C80.051,367.923,80.062,365.882,82.423,365.852z"/>
		<path style="fill:#2E6DD9;" d="M102.003,251.444c0-13.438-10.894-24.331-24.331-24.331c-13.438,0-24.331,10.893-24.331,24.331
			c0,9.725,5.708,18.114,13.954,22.009l-6.288,55.92H92.78l-5.786-55.452C95.805,270.263,102.003,261.578,102.003,251.444z"/>
		<g>
			<path style="fill:#FFBB00;" d="M152.716,261.406v22.2c0,0.653-0.53,1.183-1.183,1.183H107.49c-0.653,0-1.183-0.53-1.183-1.183
				v-22.2H152.716z"/>
			<path style="fill:#FFBB00;" d="M152.716,299.192v10.537c0,0.528-0.428,0.956-0.956,0.956h-13.726
				c-0.528,0-0.957-0.428-0.957-0.956v-6.027h-15.13v6.027c0,0.528-0.428,0.956-0.956,0.956h-13.727
				c-0.528,0-0.957-0.428-0.957-0.956v-10.537H152.716z"/>
			
				<rect x="113.8" y="284.789" transform="matrix(-1 -1.224647e-16 1.224647e-16 -1 259.0239 583.981)" style="fill:#FFBB00;" width="31.424" height="14.403"/>
			<path style="fill:#FFBB00;" d="M80.619,250.455L80.619,250.455c0,6.048,4.903,10.951,10.951,10.951h233.964
				c10.178,0.135,14.216,13.424,14.216,13.424l0.008-0.077c6.935,18.162,21.636,30.693,38.652,30.693
				c23.693,0,42.899-24.293,42.899-54.26c0-29.967-19.206-54.26-42.899-54.26c-16.53,0-30.867,11.833-38.031,29.16l-0.001-0.012
				c0,0-0.009,0.027-0.021,0.067c-0.31,0.753-0.607,1.515-0.89,2.287c-1.704,3.851-5.907,11.076-13.459,11.076H91.57
				C85.522,239.504,80.619,244.407,80.619,250.455z M360.553,242.945c-1.149-2.758-1.805-5.811-1.805-9.036
				c0-12.111,9.02-21.928,20.146-21.928c11.127,0,20.147,9.818,20.147,21.928c0,3.236-0.661,6.299-1.817,9.064l0.012,0.005
				c0,0-0.019,0.024-0.033,0.041c-0.419,0.997-0.898,1.956-1.444,2.866c-0.876,2.598-1.391,6.88,1.087,12.656l-0.016-0.003
				c1.403,2.989,2.21,6.365,2.21,9.951c0,12.111-9.02,21.929-20.147,21.929c-11.126,0-20.146-9.818-20.146-21.929
				c0-3.594,0.81-6.975,2.217-9.969l-0.101,0.02c2.605-6.072,1.903-10.493,0.95-13.041c-0.406-0.708-0.775-1.443-1.106-2.202
				c-0.141-0.206-0.233-0.32-0.233-0.32L360.553,242.945z"/>
			
				<rect x="106.307" y="261.406" transform="matrix(-1 -1.224647e-16 1.224647e-16 -1 259.0238 530.9122)" style="opacity:0.5;fill:#FF9A00;" width="46.409" height="8.1"/>
			<g>
				<path style="fill:#FFC83E;" d="M333.845,251.199c0.518,10.324,2.681,16.441,3.932,19.186
					c-4.563-8.174-10.422-8.926-11.895-8.979H90.854c-5.637,0-10.207-4.57-10.207-10.207H333.845z"/>
				<path style="fill:#FFD072;" d="M337.777,270.385c0.307,0.55,0.611,1.12,0.904,1.74
					C338.681,272.125,338.31,271.557,337.777,270.385z"/>
			</g>
			<path style="fill:#FFBB00;" d="M164.745,233.881h16.891c0.845,0,1.53,0.685,1.53,1.53v30.291c0,0.845-0.685,1.53-1.53,1.53
				h-16.891c-0.845,0-1.53-0.685-1.53-1.53v-30.291C163.215,234.566,163.9,233.881,164.745,233.881z"/>
		</g>
		<text transform="matrix(1 0 0 1 104.3687 86.0786)"><tspan x="0" y="0" style="fill:#FFBB00; font-family:'Bebas'; font-size:28.5163px;">Key</tspan><tspan x="45.312" y="0" style="fill:#FFFFFF; font-family:'Bebas'; font-size:28.5163px;">  business  concept</tspan></text>
		<g>
			<path style="fill:#9BC0F9;" d="M324.866,168.355c0,0,2.323-9.428,15.968-7.764c0,0,3.484-10.814,17.129-9.151
				c13.645,1.664,14.807,10.814,14.807,10.814s7.839-3.328,13.065-0.277c5.226,3.05,6.678,6.378,6.678,6.378H324.866z"/>
			<path style="fill:#9BC0F9;" d="M93.903,168.355c0,0,2.737-11.111,18.818-9.15c0,0,4.106-12.745,20.186-10.784
				c16.081,1.961,17.449,12.745,17.449,12.745s9.238-3.921,15.396-0.327c6.159,3.595,7.869,7.516,7.869,7.516H93.903z"/>
			<path style="fill:#9BC0F9;" d="M254.252,196.379c0,0-1.474-5.981-10.13-4.926c0,0-2.21-6.861-10.867-5.805
				c-8.657,1.056-9.393,6.861-9.393,6.861s-4.973-2.111-8.288-0.176c-3.315,1.935-4.236,4.046-4.236,4.046H254.252z"/>
		</g>
		<g>
			<polygon style="fill:#FE9764;" points="217.518,358.172 210.164,345.663 203.293,345.619 210.464,358.126 			"/>
			<path style="fill:#0E1333;" d="M203.425,364.625l18.637,0.119l-4.361-6.572l-8.605-0.055
				C205.988,358.098,203.448,361.011,203.425,364.625L203.425,364.625z"/>
			<polygon style="fill:#FE9764;" points="189.393,358.351 193.298,345.914 186.427,345.87 182.339,358.306 			"/>
			<path style="fill:#0E1333;" d="M172.805,364.789l14.499,0.093l2.089-6.531l-10.002-0.064
				C175.777,358.263,172.829,361.174,172.805,364.789L172.805,364.789z"/>
			<path style="fill:#151D42;" d="M207.858,296.951c0,0,2.67-5.19-2.126-9.271l-9.88,5.3L207.858,296.951z"/>
			<polygon style="fill:#0A0E26;" points="187.913,330.159 204.064,353.769 214.875,353.301 196.47,322.307 			"/>
			<path style="fill:#0A0E26;" d="M193.279,287.174l-8.016,27.472c-1.548,6.323,0.366,13.195,4.797,17.219l0.755,0.685
				l11.411-45.809L193.279,287.174z"/>
			<polygon style="fill:#151D42;" points="196.882,285.373 180.336,352.978 191.223,353.535 207.858,296.951 			"/>
			<polygon style="fill:#FE9764;" points="199.657,254.064 203.802,253.111 202.604,245.35 198.194,246.031 			"/>
			<path style="fill:#FE9764;" d="M192.286,244.639c2.364,3.888,7.433,5.123,11.32,2.758c3.888-2.364,5.123-7.433,2.758-11.32
				c-2.364-3.888-7.432-5.123-11.32-2.758C191.157,235.683,189.922,240.751,192.286,244.639z"/>
			<path style="fill:#FE9764;" d="M191.157,239.296l-1.559,1.358c-0.473,0.412-0.284,1.186,0.325,1.334l1.413,0.344l1.617-0.983
				L191.157,239.296z"/>
			<path style="fill:#F4F4F4;" d="M207.151,290.519l-14.42,0.585c-0.799,0.032-1.44-0.651-1.356-1.446l3.423-32.616
				c0.413-3.934,3.854-6.842,7.802-6.593l0,0c3.988,0.251,7.051,3.631,6.909,7.624l-1.102,31.184
				C208.383,289.941,207.835,290.491,207.151,290.519z"/>
			<g>
				<defs>
					<path id="SVGID_1_" d="M201.632,239.795l4.594,7.555l4.076-12.595l-13.702-4.443l-4.79,4.662l5.381,0.988l0.74,4.4
						c0.078,0.464,0.427,0.836,0.885,0.944l0,0c0.676,0.159,1.34-0.304,1.426-0.992l0.25-2.005L201.632,239.795z"/>
				</defs>
				<clipPath id="SVGID_00000111899821393882794530000001497230039812277140_">
					<use xlink:href="#SVGID_1_"  style="overflow:visible;"/>
				</clipPath>
				<path style="clip-path:url(#SVGID_00000111899821393882794530000001497230039812277140_);fill:#0E1333;" d="M192.286,244.639
					c2.364,3.888,7.433,5.123,11.32,2.758c3.888-2.364,5.123-7.433,2.758-11.32c-2.364-3.888-7.432-5.123-11.32-2.758
					C191.157,235.683,189.922,240.751,192.286,244.639z"/>
			</g>
			<path style="fill:#FE9764;" d="M200.718,240.263c0.684,1.124,2.149,1.481,3.273,0.798c1.124-0.684,1.481-2.149,0.798-3.273
				c-0.684-1.124-2.149-1.481-3.273-0.798C200.392,237.673,200.035,239.139,200.718,240.263z"/>
			<g>
				<path style="fill:#FE9764;" d="M161.645,241.407c1.938-1.606,4.811-1.337,6.417,0.601c1.606,1.938,1.337,4.811-0.601,6.417
					s-4.811,1.337-6.417-0.601C159.437,245.886,159.707,243.013,161.645,241.407z"/>
				<g>
					<path style="fill:#FFFFFF;" d="M181.668,262.582l18.428-11.725c2.267-1.051,4.698-0.071,5.428,2.191
						c0.73,2.261-0.516,4.947-2.783,5.999l-18.427,11.725c-3.692,1.713-7.765,0.754-9.905-2.331l-11.576-17.509l7.522-5.409
						L181.668,262.582z"/>
				</g>
			</g>
		</g>
		<g>
			<g>
				<polygon style="fill:#FE9764;" points="295.373,262.853 299.614,262.853 300.183,255.044 295.745,254.721 				"/>
				<path style="fill:#F4F4F4;" d="M289.01,267.545l2.089,12.168c0.082,0.475,0.494,0.822,0.976,0.822h7.664
					c0.367,0,0.704-0.203,0.876-0.528l5.701-10.813c1.426-2.704-0.113-6.024-3.098-6.684l-7.247-1.602
					C291.951,260.019,288.313,263.488,289.01,267.545z"/>
				<polygon style="fill:#FFFFFF;" points="306.241,360.694 303.216,354.891 309.432,354.025 311.879,359.428 				"/>
				<polygon style="fill:#FE9764;" points="282.564,309.635 265.902,353.937 271.843,355.376 293.347,309.148 				"/>
				<path style="fill:#FE9764;" d="M293.532,308.756l-1.125,24.715l-0.016,0.351c-0.025,0.552,0.106,1.087,0.346,1.544l10.48,19.524
					l6.216-0.866l-9.243-21.737l0.33,1.895l2.802-24.449L293.532,308.756z"/>
				<polygon style="fill:#FFFFFF;" points="271.843,355.376 269.155,361.518 263.379,360.076 265.902,353.937 				"/>
				<path style="fill:#151D42;" d="M300.336,280.535c0,0,4.981,9.764,4.981,15.246v25.086l-28.951-2.918l14.874-37.414H300.336z"/>
				<g>
					<path style="fill:#FE9764;" d="M289.283,247.231l1.94-0.574l0.763,2.559l-1.839,0.217l-1.118-0.882
						C288.547,248.171,288.694,247.405,289.283,247.231z"/>
					<g>
						<defs>
							<path id="SVGID_00000174598476065243725250000009861116674435309698_" d="M289.917,251.209
								c0.522,4.424,4.531,7.587,8.955,7.065c4.424-0.522,7.587-4.531,7.065-8.955c-0.522-4.424-4.531-7.587-8.955-7.065
								C292.558,242.777,289.395,246.786,289.917,251.209z"/>
						</defs>
						<use xlink:href="#SVGID_00000174598476065243725250000009861116674435309698_"  style="overflow:visible;fill:#FE9764;"/>
						<clipPath id="SVGID_00000036225725654713788610000016011780356542310299_">
							<use xlink:href="#SVGID_00000174598476065243725250000009861116674435309698_"  style="overflow:visible;"/>
						</clipPath>
						<polygon style="clip-path:url(#SVGID_00000036225725654713788610000016011780356542310299_);fill:#0E1333;" points="
							296.422,239.814 303.562,259.975 308.802,246.856 						"/>
					</g>
					<path style="fill:#0E1333;" d="M303.723,247.006c1.493,3.958,5.913,5.956,9.871,4.463c3.958-1.493,5.956-5.913,4.463-9.871
						c-1.493-3.958-5.913-5.956-9.871-4.463C304.228,238.629,302.23,243.048,303.723,247.006z"/>
					<path style="fill:#FE9764;" d="M299.214,250.82c0.146,1.239,1.269,2.125,2.508,1.979c1.239-0.146,2.125-1.269,1.979-2.508
						c-0.146-1.239-1.269-2.125-2.508-1.979C299.954,248.458,299.068,249.581,299.214,250.82z"/>
				</g>
				<g>
					<g>
						<path style="fill:#FE9764;" d="M302.776,296.477c0.771,0.897,0.668,2.25-0.229,3.021c-0.983,0.845-1.578,1.688-1.592,2.256
							c-0.002,0.069,0.011,0.129,0.025,0.188l0.216,0.394c0,0,2.115,2.605-0.893,3.763c-1.694,0.359-2.739-1.344-3.109-2.093
							c-0.01-0.021-0.02-0.042-0.031-0.064c-0.58-1.218-1.389-4.273,2.592-7.693C300.652,295.477,302.005,295.58,302.776,296.477z"
							/>
					</g>
					<g>
						<path style="fill:#FFFFFF;" d="M310.115,283.839l-9.779-15.648c-1.009-1.615-0.518-3.743,1.097-4.752
							c1.615-1.009,3.743-0.518,4.752,1.097l9.779,15.647c1.644,2.629,1.332,6.066-0.757,8.357l-11.917,12.548l-4.782-4.996
							L310.115,283.839z"/>
					</g>
				</g>
				<path style="fill:#0E1333;" d="M254.252,365.801h12.938l2.948-6.283h-9.603C257.065,359.518,254.252,362.331,254.252,365.801
					L254.252,365.801z"/>
				<path style="fill:#0E1333;" d="M298.507,365.801h16.662l-2.859-6.283h-8.344C300.951,359.518,298.507,362.331,298.507,365.801
					L298.507,365.801z"/>
			</g>
			<polygon style="fill:#FE9764;" points="299.737,261.745 295.373,266.698 295.48,260.528 			"/>
		</g>
		<g>
			<polygon style="fill:#FE9764;" points="387.205,349.471 387.96,364.084 380.177,362.659 379.649,349.007 			"/>
			<polygon style="fill:#FE9764;" points="417.721,355.55 433.159,355.58 435.616,362.197 417.849,362.659 			"/>
			<path style="fill:#0E1333;" d="M369.316,365.801l19.416-0.359l-0.48-5.924h-11.447
				C372.669,359.518,369.316,362.331,369.316,365.801L369.316,365.801z"/>
			<path style="fill:#0E1333;" d="M442.233,365.559l-6.424-9.981h-6.809l4.336,8.353
				C435.429,366.852,439.413,367.58,442.233,365.559L442.233,365.559z"/>
			<polygon style="fill:#FE9764;" points="413.692,285.98 417.666,285.04 416.468,277.596 412.238,278.277 			"/>
			<g>
				<path style="fill:#FE9764;" d="M406.557,276.977c2.294,3.718,7.167,4.873,10.886,2.579c3.718-2.294,4.873-7.167,2.579-10.885
					s-7.167-4.873-10.885-2.579C405.418,268.385,404.263,273.259,406.557,276.977z"/>
				<path style="fill:#FE9764;" d="M405.44,271.854l-1.488,1.313c-0.451,0.398-0.266,1.14,0.32,1.279l1.359,0.322l1.546-0.954
					L405.44,271.854z"/>
				<path style="fill:#F4F4F4;" d="M421.111,320.935l-13.841,0.65c-0.766,0.036-1.386-0.616-1.311-1.38l3.086-31.336
					c0.372-3.779,3.659-6.593,7.45-6.378l0,0c3.83,0.217,6.792,3.443,6.681,7.278l-0.867,29.946
					C422.29,320.372,421.768,320.904,421.111,320.935z"/>
				<g>
					<defs>
						<path id="SVGID_00000090266562435123672710000017882324251910354106_" d="M415.501,272.269l4.457,7.225l3.836-12.118
							l-13.182-4.182l-4.57,4.505l5.172,0.916l0.737,4.22c0.078,0.445,0.415,0.8,0.856,0.901l0,0c0.65,0.148,1.285-0.3,1.363-0.962
							l0.228-1.927L415.501,272.269z"/>
					</defs>
					<clipPath id="SVGID_00000113336593639336081380000008570822648669768093_">
						<use xlink:href="#SVGID_00000090266562435123672710000017882324251910354106_"  style="overflow:visible;"/>
					</clipPath>
					<path style="clip-path:url(#SVGID_00000113336593639336081380000008570822648669768093_);fill:#0E1333;" d="M406.557,276.977
						c2.294,3.718,7.167,4.873,10.886,2.579c3.718-2.294,4.873-7.167,2.579-10.885s-7.167-4.873-10.885-2.579
						C405.418,268.385,404.263,273.259,406.557,276.977z"/>
				</g>
				<path style="fill:#FE9764;" d="M414.626,272.724c0.663,1.075,2.073,1.409,3.148,0.746s1.409-2.073,0.746-3.148
					c-0.663-1.075-2.073-1.409-3.148-0.746C414.297,270.239,413.963,271.648,414.626,272.724z"/>
			</g>
			<g>
				<path style="fill:#151D42;" d="M426.668,365.837l-23.277,0c-1.3,0-2.596-0.406-3.572-1.266
					c-1.702-1.501-2.198-3.857-1.365-5.855l15.032-36.107l6.405,2.667c1.708,0.711,2.515,2.671,1.805,4.379l-10.781,25.894h15.753
					V365.837z"/>
				<path style="fill:#151D42;" d="M377.395,356.103l-1.468-30.032c-0.069-1.406,0.441-2.779,1.413-3.798
					c0.97-1.02,2.317-1.596,3.724-1.596h30.019v10.287h-24.617l1.204,24.637L377.395,356.103z"/>
			</g>
			<polygon style="fill:#151D42;" points="410.249,330.964 410.249,320.677 421.678,320.677 421.678,326.564 413.71,334.902 			"/>
			<path style="fill:#151D42;" d="M421.678,320.677c0,0,2.818,4.033-0.69,10.679l-4.39-7.951L421.678,320.677z"/>
			<path style="fill:#FE9764;" d="M389.981,276.578c1.963-1.398,4.687-0.939,6.085,1.024c1.398,1.963,0.939,4.687-1.024,6.085
				c-1.963,1.398-4.687,0.939-6.085-1.024C387.56,280.699,388.018,277.975,389.981,276.578z"/>
			<path style="fill:#0E1333;" d="M409.702,263.509c2.479,2.026,3.544,0.325,6.668,0.008c3.982-0.403,5.842,2.516,5.453,4.561
				c-0.005,0.029-0.367,2.029-0.415,2.73c-0.079,1.179,1.433,1.793,1.479,4.315c0.047,2.523-3.754,3.033-3.754,3.033l1.132-2.964
				l-1.315-6.906l-5.672-1.546l-6.113,1.168C401.346,265.704,405.577,260.138,409.702,263.509z"/>
			<g>
				<path style="fill:#FFFFFF;" d="M418.021,284.926c-1.613-1.855-4.423-2.052-6.279-0.438l-11.78,10.244l-2.654-12.532
					l-8.619,2.269l3.089,14.584c0.55,2.596,2.38,4.649,4.896,5.492c0.784,0.263,1.587,0.392,2.38,0.392
					c1.751,0,3.459-0.628,4.838-1.826l13.691-11.905C419.438,289.592,419.634,286.781,418.021,284.926z"/>
			</g>
		</g>
	</g>
</g>
<g id="DESIGNED_BY_FREEPIK">
	<g>
		<g>
			<path style="fill:#0E1333;" d="M180.308,472.293v-0.161c-0.218,0.249-0.432,0.452-0.644,0.608
				c-0.212,0.157-0.441,0.276-0.689,0.357c-0.247,0.082-0.517,0.122-0.81,0.122c-0.388,0-0.747-0.082-1.078-0.246
				c-0.33-0.164-0.616-0.399-0.857-0.704c-0.242-0.305-0.425-0.662-0.549-1.074c-0.124-0.412-0.187-0.857-0.187-1.335
				c0-1.013,0.247-1.804,0.742-2.369c0.495-0.565,1.146-0.848,1.953-0.848c0.467,0,0.861,0.081,1.181,0.24
				c0.321,0.16,0.633,0.408,0.938,0.739v-2.392c0-0.333,0.066-0.583,0.199-0.754c0.132-0.17,0.321-0.255,0.567-0.255
				c0.245,0,0.434,0.078,0.567,0.234c0.133,0.157,0.199,0.386,0.199,0.691v7.147c0,0.309-0.071,0.54-0.214,0.694
				c-0.143,0.154-0.326,0.231-0.552,0.231c-0.221,0-0.405-0.08-0.549-0.24C180.38,472.817,180.308,472.589,180.308,472.293z
				 M177.12,469.912c0,0.439,0.068,0.813,0.205,1.122c0.137,0.309,0.324,0.541,0.561,0.697c0.238,0.157,0.497,0.236,0.778,0.236
				c0.285,0,0.545-0.074,0.781-0.223c0.235-0.148,0.423-0.376,0.564-0.682c0.141-0.307,0.21-0.691,0.21-1.149
				c0-0.432-0.07-0.803-0.21-1.114c-0.14-0.31-0.33-0.547-0.57-0.712c-0.24-0.164-0.502-0.245-0.786-0.245
				c-0.297,0-0.562,0.084-0.796,0.252c-0.234,0.168-0.415,0.409-0.543,0.724C177.184,469.131,177.12,469.496,177.12,469.912z"/>
			<path style="fill:#0E1333;" d="M187.454,470.322h-3.17c0.004,0.367,0.078,0.692,0.223,0.973c0.144,0.281,0.336,0.493,0.576,0.635
				c0.24,0.143,0.504,0.213,0.793,0.213c0.194,0,0.371-0.022,0.531-0.067c0.16-0.046,0.315-0.117,0.466-0.214
				c0.15-0.097,0.289-0.201,0.415-0.312c0.126-0.111,0.29-0.262,0.493-0.452c0.083-0.071,0.202-0.107,0.357-0.107
				c0.166,0,0.3,0.046,0.403,0.137c0.103,0.092,0.155,0.219,0.155,0.386c0,0.146-0.058,0.317-0.172,0.513
				c-0.116,0.196-0.289,0.384-0.52,0.564c-0.232,0.18-0.522,0.329-0.873,0.448c-0.35,0.119-0.753,0.178-1.208,0.178
				c-1.04,0-1.85-0.297-2.428-0.891c-0.578-0.593-0.866-1.399-0.866-2.416c0-0.479,0.071-0.924,0.213-1.332
				c0.143-0.41,0.351-0.761,0.623-1.054c0.273-0.293,0.609-0.517,1.01-0.674c0.399-0.156,0.843-0.234,1.33-0.234
				c0.633,0,1.176,0.132,1.629,0.4c0.454,0.267,0.794,0.612,1.019,1.035c0.225,0.424,0.339,0.856,0.339,1.294
				c0,0.408-0.117,0.672-0.35,0.793C188.206,470.261,187.878,470.322,187.454,470.322z M184.284,469.402h2.939
				c-0.039-0.554-0.189-0.969-0.448-1.244c-0.259-0.275-0.6-0.413-1.024-0.413c-0.404,0-0.735,0.139-0.994,0.418
				C184.497,468.442,184.34,468.855,184.284,469.402z"/>
			<path style="fill:#0E1333;" d="M194.838,471.099c0,0.447-0.108,0.831-0.327,1.149c-0.217,0.319-0.539,0.56-0.965,0.725
				c-0.425,0.164-0.943,0.246-1.552,0.246c-0.582,0-1.08-0.089-1.496-0.267c-0.415-0.178-0.722-0.401-0.92-0.667
				c-0.198-0.268-0.297-0.535-0.297-0.805c0-0.178,0.063-0.33,0.19-0.456c0.126-0.126,0.287-0.19,0.481-0.19
				c0.17,0,0.3,0.042,0.391,0.125c0.091,0.083,0.179,0.2,0.261,0.35c0.166,0.29,0.366,0.504,0.597,0.648
				c0.231,0.142,0.547,0.214,0.947,0.214c0.324,0,0.59-0.073,0.798-0.217c0.208-0.145,0.311-0.31,0.311-0.496
				c0-0.285-0.107-0.492-0.324-0.622c-0.216-0.131-0.571-0.256-1.066-0.375c-0.558-0.138-1.012-0.284-1.362-0.436
				c-0.35-0.151-0.63-0.353-0.84-0.602c-0.21-0.25-0.315-0.557-0.315-0.92c0-0.324,0.097-0.631,0.291-0.92
				c0.194-0.288,0.48-0.519,0.859-0.691c0.377-0.173,0.833-0.259,1.367-0.259c0.42,0,0.797,0.043,1.131,0.131
				c0.335,0.086,0.614,0.204,0.837,0.35c0.224,0.146,0.394,0.308,0.51,0.486c0.117,0.178,0.175,0.352,0.175,0.523
				c0,0.185-0.062,0.338-0.186,0.457c-0.124,0.118-0.301,0.178-0.532,0.178c-0.166,0-0.308-0.048-0.424-0.143
				c-0.117-0.095-0.25-0.237-0.401-0.427c-0.123-0.158-0.266-0.285-0.433-0.38c-0.166-0.095-0.392-0.142-0.677-0.142
				c-0.293,0-0.536,0.062-0.73,0.187c-0.194,0.124-0.291,0.279-0.291,0.465c0,0.171,0.071,0.31,0.213,0.419
				c0.143,0.109,0.334,0.2,0.576,0.27c0.242,0.071,0.573,0.157,0.997,0.261c0.502,0.123,0.912,0.27,1.231,0.44
				c0.318,0.17,0.56,0.371,0.725,0.603C194.756,470.538,194.838,470.802,194.838,471.099z"/>
			<path style="fill:#0E1333;" d="M196.494,465.876c-0.225,0-0.418-0.07-0.579-0.208c-0.16-0.138-0.24-0.334-0.24-0.588
				c0-0.23,0.082-0.418,0.246-0.567c0.164-0.149,0.355-0.223,0.573-0.223c0.21,0,0.396,0.067,0.558,0.202
				c0.162,0.135,0.244,0.33,0.244,0.588c0,0.25-0.08,0.444-0.238,0.585C196.899,465.805,196.711,465.876,196.494,465.876z
				 M197.295,467.549v4.683c0,0.325-0.077,0.571-0.232,0.737c-0.155,0.166-0.35,0.249-0.588,0.249c-0.238,0-0.431-0.085-0.579-0.255
				c-0.149-0.17-0.222-0.414-0.222-0.73v-4.636c0-0.32,0.074-0.561,0.222-0.724c0.148-0.162,0.341-0.243,0.579-0.243
				c0.238,0,0.433,0.081,0.588,0.243C197.218,467.035,197.295,467.261,197.295,467.549z"/>
			<path style="fill:#0E1333;" d="M204.395,467.817v4.707c0,0.538-0.058,1.001-0.173,1.39c-0.114,0.387-0.298,0.708-0.552,0.961
				c-0.253,0.253-0.585,0.441-0.994,0.563c-0.41,0.123-0.919,0.184-1.529,0.184c-0.558,0-1.057-0.078-1.496-0.234
				c-0.439-0.157-0.777-0.358-1.015-0.605c-0.237-0.247-0.357-0.502-0.357-0.763c0-0.198,0.068-0.36,0.202-0.483
				c0.134-0.125,0.297-0.187,0.486-0.187c0.237,0,0.445,0.105,0.623,0.314c0.087,0.107,0.177,0.216,0.27,0.324
				c0.093,0.109,0.197,0.202,0.309,0.28c0.113,0.076,0.249,0.134,0.407,0.172c0.158,0.037,0.341,0.056,0.546,0.056
				c0.42,0,0.745-0.058,0.977-0.175c0.232-0.117,0.394-0.28,0.487-0.49c0.093-0.209,0.147-0.433,0.163-0.673
				c0.016-0.24,0.027-0.624,0.035-1.155c-0.25,0.349-0.537,0.615-0.864,0.797c-0.326,0.182-0.715,0.273-1.166,0.273
				c-0.542,0-1.016-0.139-1.422-0.416c-0.405-0.277-0.717-0.665-0.935-1.163c-0.218-0.499-0.326-1.074-0.326-1.727
				c0-0.486,0.066-0.927,0.198-1.318c0.133-0.393,0.322-0.723,0.567-0.992c0.245-0.269,0.528-0.472,0.849-0.608
				c0.321-0.136,0.673-0.204,1.057-0.204c0.459,0,0.857,0.089,1.193,0.264c0.336,0.177,0.649,0.453,0.938,0.829v-0.22
				c0-0.281,0.069-0.498,0.208-0.653c0.139-0.154,0.317-0.231,0.535-0.231c0.313,0,0.52,0.103,0.623,0.306
				C204.343,467.139,204.395,467.433,204.395,467.817z M199.699,469.871c0,0.657,0.143,1.154,0.43,1.49
				c0.287,0.337,0.658,0.505,1.113,0.505c0.269,0,0.523-0.073,0.762-0.217c0.24-0.145,0.435-0.362,0.585-0.653
				c0.15-0.291,0.225-0.644,0.225-1.06c0-0.66-0.145-1.176-0.436-1.543c-0.291-0.368-0.674-0.552-1.149-0.552
				c-0.463,0-0.834,0.176-1.113,0.529C199.838,468.721,199.699,469.222,199.699,469.871z"/>
			<path style="fill:#0E1333;" d="M206.97,467.526v0.196c0.285-0.376,0.596-0.652,0.935-0.828c0.338-0.176,0.727-0.264,1.166-0.264
				c0.428,0,0.809,0.093,1.146,0.28c0.336,0.186,0.588,0.449,0.753,0.789c0.108,0.198,0.176,0.413,0.208,0.641
				c0.032,0.23,0.048,0.522,0.048,0.879v3.015c0,0.325-0.075,0.571-0.223,0.737c-0.148,0.166-0.341,0.249-0.579,0.249
				c-0.242,0-0.437-0.085-0.588-0.255c-0.151-0.17-0.226-0.414-0.226-0.73v-2.701c0-0.534-0.074-0.943-0.223-1.226
				c-0.149-0.283-0.444-0.425-0.888-0.425c-0.288,0-0.552,0.086-0.789,0.258c-0.237,0.173-0.412,0.41-0.522,0.71
				c-0.079,0.242-0.119,0.692-0.119,1.353v2.03c0,0.328-0.077,0.576-0.228,0.74c-0.152,0.164-0.349,0.246-0.59,0.246
				c-0.234,0-0.426-0.085-0.576-0.255c-0.15-0.17-0.225-0.414-0.225-0.73v-4.683c0-0.309,0.067-0.54,0.202-0.692
				c0.135-0.152,0.319-0.228,0.552-0.228c0.143,0,0.272,0.034,0.387,0.101c0.114,0.068,0.207,0.169,0.276,0.302
				C206.935,467.167,206.97,467.332,206.97,467.526z"/>
			<path style="fill:#0E1333;" d="M216.829,470.322h-3.17c0.004,0.367,0.078,0.692,0.223,0.973c0.144,0.281,0.336,0.493,0.576,0.635
				c0.239,0.143,0.503,0.213,0.792,0.213c0.194,0,0.371-0.022,0.532-0.067c0.16-0.046,0.315-0.117,0.466-0.214
				c0.15-0.097,0.288-0.201,0.416-0.312c0.126-0.111,0.29-0.262,0.492-0.452c0.083-0.071,0.202-0.107,0.356-0.107
				c0.166,0,0.301,0.046,0.404,0.137c0.103,0.092,0.154,0.219,0.154,0.386c0,0.146-0.057,0.317-0.172,0.513
				c-0.115,0.196-0.288,0.384-0.52,0.564c-0.232,0.18-0.522,0.329-0.872,0.448c-0.35,0.119-0.753,0.178-1.208,0.178
				c-1.041,0-1.85-0.297-2.428-0.891c-0.577-0.593-0.866-1.399-0.866-2.416c0-0.479,0.071-0.924,0.214-1.332
				c0.143-0.41,0.351-0.761,0.624-1.054c0.273-0.293,0.609-0.517,1.009-0.674c0.399-0.156,0.843-0.234,1.33-0.234
				c0.633,0,1.176,0.132,1.629,0.4c0.454,0.267,0.793,0.612,1.019,1.035c0.225,0.424,0.338,0.856,0.338,1.294
				c0,0.408-0.117,0.672-0.35,0.793C217.581,470.261,217.253,470.322,216.829,470.322z M213.659,469.402h2.938
				c-0.039-0.554-0.189-0.969-0.448-1.244c-0.259-0.275-0.601-0.413-1.024-0.413c-0.404,0-0.736,0.139-0.995,0.418
				C213.871,468.442,213.715,468.855,213.659,469.402z"/>
			<path style="fill:#0E1333;" d="M223.435,472.293v-0.161c-0.218,0.249-0.432,0.452-0.644,0.608
				c-0.212,0.157-0.441,0.276-0.688,0.357c-0.247,0.082-0.517,0.122-0.81,0.122c-0.388,0-0.747-0.082-1.078-0.246
				c-0.331-0.164-0.616-0.399-0.858-0.704c-0.242-0.305-0.424-0.662-0.549-1.074c-0.125-0.412-0.187-0.857-0.187-1.335
				c0-1.013,0.247-1.804,0.742-2.369c0.495-0.565,1.146-0.848,1.953-0.848c0.467,0,0.861,0.081,1.181,0.24
				c0.32,0.16,0.633,0.408,0.938,0.739v-2.392c0-0.333,0.066-0.583,0.199-0.754c0.132-0.17,0.322-0.255,0.567-0.255
				c0.245,0,0.434,0.078,0.567,0.234c0.132,0.157,0.199,0.386,0.199,0.691v7.147c0,0.309-0.071,0.54-0.214,0.694
				c-0.143,0.154-0.326,0.231-0.552,0.231c-0.222,0-0.405-0.08-0.549-0.24C223.507,472.817,223.435,472.589,223.435,472.293z
				 M220.248,469.912c0,0.439,0.068,0.813,0.204,1.122c0.137,0.309,0.324,0.541,0.562,0.697c0.237,0.157,0.496,0.236,0.777,0.236
				c0.285,0,0.546-0.074,0.781-0.223c0.236-0.148,0.424-0.376,0.564-0.682c0.141-0.307,0.211-0.691,0.211-1.149
				c0-0.432-0.07-0.803-0.211-1.114c-0.14-0.31-0.33-0.547-0.57-0.712c-0.24-0.164-0.502-0.245-0.787-0.245
				c-0.296,0-0.562,0.084-0.795,0.252c-0.233,0.168-0.414,0.409-0.543,0.724C220.312,469.131,220.248,469.496,220.248,469.912z"/>
			<path style="fill:#0E1333;" d="M230.059,465.145v2.475c0.304-0.316,0.615-0.559,0.932-0.727c0.316-0.168,0.709-0.252,1.175-0.252
				c0.538,0,1.01,0.128,1.416,0.382c0.405,0.256,0.72,0.626,0.944,1.111c0.223,0.484,0.336,1.06,0.336,1.725
				c0,0.491-0.063,0.94-0.187,1.35c-0.125,0.409-0.306,0.765-0.543,1.065c-0.238,0.301-0.525,0.534-0.864,0.698
				c-0.339,0.164-0.712,0.246-1.119,0.246c-0.25,0-0.484-0.029-0.703-0.089c-0.22-0.059-0.407-0.137-0.561-0.234
				c-0.154-0.096-0.286-0.197-0.395-0.3c-0.109-0.103-0.253-0.258-0.431-0.463v0.161c0,0.304-0.073,0.535-0.22,0.692
				c-0.146,0.156-0.332,0.234-0.558,0.234c-0.229,0-0.413-0.077-0.549-0.234c-0.137-0.157-0.205-0.388-0.205-0.692v-7.077
				c0-0.328,0.066-0.577,0.198-0.745c0.133-0.168,0.318-0.252,0.555-0.252c0.25,0,0.441,0.08,0.576,0.24
				C229.991,464.62,230.059,464.848,230.059,465.145z M230.136,469.96c0,0.645,0.147,1.14,0.442,1.486
				c0.295,0.347,0.682,0.521,1.161,0.521c0.407,0,0.759-0.177,1.053-0.532c0.295-0.355,0.442-0.862,0.442-1.523
				c0-0.427-0.061-0.796-0.184-1.104c-0.123-0.309-0.297-0.548-0.522-0.715c-0.226-0.168-0.489-0.252-0.79-0.252
				c-0.309,0-0.584,0.084-0.825,0.252c-0.242,0.168-0.431,0.411-0.57,0.73C230.205,469.141,230.136,469.52,230.136,469.96z"/>
			<path style="fill:#0E1333;" d="M236.963,473.42l0.148-0.363l-1.995-5.022c-0.122-0.288-0.184-0.499-0.184-0.629
				c0-0.139,0.036-0.267,0.107-0.385c0.071-0.119,0.169-0.214,0.294-0.285c0.125-0.072,0.255-0.107,0.389-0.107
				c0.233,0,0.409,0.074,0.529,0.223c0.119,0.148,0.223,0.361,0.314,0.638l1.371,3.989l1.3-3.71c0.103-0.3,0.196-0.536,0.279-0.706
				c0.083-0.17,0.171-0.285,0.264-0.344c0.093-0.06,0.225-0.09,0.395-0.09c0.123,0,0.24,0.032,0.353,0.098
				c0.113,0.065,0.2,0.153,0.261,0.264c0.061,0.111,0.092,0.227,0.092,0.35c-0.016,0.075-0.041,0.182-0.077,0.321
				c-0.036,0.138-0.079,0.28-0.13,0.421l-2.113,5.533c-0.182,0.487-0.361,0.868-0.535,1.145c-0.174,0.277-0.404,0.491-0.691,0.638
				c-0.287,0.149-0.674,0.223-1.161,0.223c-0.475,0-0.831-0.051-1.068-0.154c-0.238-0.104-0.356-0.292-0.356-0.564
				c0-0.186,0.056-0.33,0.169-0.43c0.112-0.101,0.28-0.152,0.501-0.152c0.087,0,0.173,0.012,0.256,0.037
				c0.103,0.023,0.192,0.035,0.267,0.035c0.186,0,0.333-0.027,0.44-0.084c0.106-0.055,0.202-0.151,0.288-0.288
				C236.754,473.887,236.852,473.685,236.963,473.42z"/>
		</g>
		<g>
			<path style="fill:#0E1333;" d="M260.439,466.769h0.386v-0.487c0-0.509,0.062-0.911,0.192-1.211
				c0.128-0.299,0.347-0.516,0.654-0.653c0.306-0.136,0.727-0.204,1.26-0.204c0.95,0,1.42,0.229,1.42,0.697
				c0,0.149-0.049,0.278-0.15,0.384c-0.096,0.106-0.214,0.16-0.349,0.16c-0.062,0-0.174-0.012-0.329-0.037
				c-0.148-0.021-0.283-0.035-0.389-0.035c-0.292,0-0.479,0.088-0.566,0.259c-0.079,0.172-0.122,0.418-0.122,0.74v0.386h0.396
				c0.62,0,0.926,0.185,0.926,0.56c0,0.262-0.079,0.431-0.245,0.503c-0.164,0.071-0.39,0.107-0.681,0.107h-0.396v4.294
				c0,0.319-0.075,0.563-0.231,0.73c-0.151,0.17-0.346,0.254-0.589,0.254c-0.229,0-0.419-0.084-0.574-0.254
				c-0.153-0.167-0.228-0.411-0.228-0.73v-4.294h-0.446c-0.243,0-0.426-0.053-0.558-0.164c-0.131-0.107-0.197-0.25-0.197-0.423
				C259.624,466.962,259.896,466.769,260.439,466.769"/>
			<path style="fill:#0E1333;" d="M265.745,470.878v1.355c0,0.327-0.083,0.574-0.234,0.737c-0.154,0.166-0.349,0.247-0.586,0.247
				c-0.239,0-0.43-0.082-0.579-0.25c-0.148-0.165-0.225-0.41-0.225-0.734v-4.514c0-0.729,0.262-1.093,0.788-1.093
				c0.271,0,0.464,0.084,0.583,0.255c0.119,0.171,0.184,0.421,0.198,0.755c0.192-0.334,0.39-0.584,0.593-0.755
				c0.208-0.171,0.477-0.255,0.819-0.255c0.343,0,0.67,0.084,0.991,0.255c0.322,0.171,0.482,0.398,0.482,0.678
				c0,0.197-0.069,0.362-0.204,0.488c-0.138,0.131-0.284,0.195-0.441,0.195c-0.062,0-0.207-0.039-0.433-0.112
				c-0.228-0.071-0.43-0.108-0.602-0.108c-0.237,0-0.433,0.064-0.582,0.186c-0.151,0.128-0.269,0.311-0.353,0.554
				c-0.081,0.247-0.137,0.541-0.17,0.878C265.759,469.979,265.745,470.392,265.745,470.878"/>
			<path style="fill:#0E1333;" d="M273.196,470.32h-3.171c0.005,0.367,0.077,0.694,0.222,0.974c0.147,0.279,0.337,0.491,0.578,0.635
				c0.24,0.142,0.502,0.212,0.793,0.212c0.194,0,0.37-0.021,0.531-0.07c0.159-0.043,0.316-0.116,0.466-0.213
				c0.151-0.095,0.288-0.199,0.415-0.313c0.126-0.109,0.292-0.26,0.494-0.449c0.084-0.071,0.203-0.109,0.355-0.109
				c0.168,0,0.301,0.046,0.406,0.139c0.104,0.092,0.152,0.219,0.152,0.386c0,0.147-0.056,0.317-0.167,0.512
				c-0.117,0.198-0.289,0.385-0.523,0.566c-0.234,0.178-0.524,0.329-0.873,0.446c-0.35,0.119-0.754,0.179-1.207,0.179
				c-1.044,0-1.853-0.296-2.429-0.889c-0.577-0.595-0.87-1.401-0.87-2.418c0-0.479,0.073-0.924,0.217-1.334
				c0.14-0.411,0.349-0.76,0.624-1.055c0.272-0.294,0.606-0.518,1.008-0.674c0.399-0.156,0.842-0.234,1.33-0.234
				c0.632,0,1.176,0.134,1.629,0.404c0.452,0.264,0.796,0.61,1.018,1.034c0.226,0.426,0.339,0.855,0.339,1.296
				c0,0.405-0.118,0.669-0.351,0.791C273.947,470.26,273.619,470.32,273.196,470.32 M270.024,469.399h2.938
				c-0.039-0.553-0.186-0.969-0.446-1.242c-0.261-0.276-0.599-0.413-1.025-0.413c-0.403,0-0.736,0.137-0.995,0.418
				C270.237,468.442,270.079,468.853,270.024,469.399"/>
			<path style="fill:#0E1333;" d="M279.938,470.32h-3.171c0.003,0.367,0.078,0.694,0.221,0.974c0.145,0.279,0.337,0.491,0.576,0.635
				c0.239,0.142,0.503,0.212,0.795,0.212c0.192,0,0.371-0.021,0.528-0.07c0.162-0.043,0.316-0.116,0.469-0.213
				c0.151-0.095,0.287-0.199,0.415-0.313c0.125-0.109,0.29-0.26,0.493-0.449c0.084-0.071,0.204-0.109,0.355-0.109
				c0.168,0,0.302,0.046,0.406,0.139c0.103,0.092,0.15,0.219,0.15,0.386c0,0.147-0.054,0.317-0.171,0.512
				c-0.111,0.198-0.285,0.385-0.519,0.566c-0.231,0.178-0.525,0.329-0.872,0.446c-0.349,0.119-0.755,0.179-1.209,0.179
				c-1.042,0-1.849-0.296-2.429-0.889c-0.577-0.595-0.868-1.401-0.868-2.418c0-0.479,0.073-0.924,0.217-1.334
				c0.142-0.411,0.349-0.76,0.623-1.055c0.272-0.294,0.608-0.518,1.009-0.674c0.399-0.156,0.844-0.234,1.331-0.234
				c0.63,0,1.174,0.134,1.633,0.404c0.45,0.264,0.791,0.61,1.013,1.034c0.225,0.426,0.341,0.855,0.341,1.296
				c0,0.405-0.12,0.669-0.351,0.791C280.688,470.26,280.36,470.32,279.938,470.32 M276.767,469.399h2.938
				c-0.04-0.553-0.19-0.969-0.447-1.242c-0.263-0.276-0.601-0.413-1.027-0.413c-0.403,0-0.735,0.137-0.996,0.418
				C276.978,468.442,276.819,468.853,276.767,469.399"/>
			<path style="fill:#0E1333;" d="M283.487,467.538v0.194c0.304-0.375,0.621-0.651,0.953-0.828c0.324-0.178,0.699-0.267,1.114-0.267
				c0.497,0,0.96,0.13,1.379,0.386c0.419,0.259,0.749,0.635,0.993,1.129c0.244,0.497,0.366,1.081,0.366,1.758
				c0,0.497-0.07,0.957-0.21,1.376c-0.14,0.418-0.336,0.767-0.581,1.05c-0.246,0.281-0.535,0.501-0.868,0.654
				c-0.339,0.151-0.695,0.227-1.08,0.227c-0.461,0-0.853-0.093-1.166-0.28c-0.314-0.182-0.614-0.458-0.901-0.816v2.433
				c0,0.71-0.26,1.069-0.777,1.069c-0.306,0-0.505-0.092-0.607-0.275c-0.095-0.187-0.146-0.452-0.146-0.807v-6.996
				c0-0.309,0.066-0.537,0.2-0.692c0.134-0.15,0.32-0.228,0.553-0.228c0.231,0,0.416,0.078,0.56,0.234
				C283.417,467.018,283.487,467.241,283.487,467.538 M286.665,469.892c0-0.428-0.067-0.796-0.197-1.102
				c-0.131-0.308-0.312-0.542-0.541-0.705c-0.23-0.164-0.489-0.248-0.77-0.248c-0.446,0-0.824,0.178-1.13,0.527
				c-0.308,0.354-0.462,0.872-0.462,1.558c0,0.641,0.153,1.146,0.46,1.504c0.305,0.358,0.679,0.536,1.133,0.536
				c0.268,0,0.519-0.079,0.748-0.233c0.232-0.158,0.416-0.392,0.552-0.704C286.595,470.714,286.665,470.335,286.665,469.892"/>
			<path style="fill:#0E1333;" d="M289.925,465.871c-0.226,0-0.418-0.071-0.577-0.209c-0.162-0.139-0.242-0.333-0.242-0.585
				c0-0.23,0.082-0.419,0.248-0.569c0.164-0.146,0.354-0.222,0.571-0.222c0.212,0,0.397,0.067,0.559,0.2
				c0.162,0.137,0.244,0.334,0.244,0.591c0,0.25-0.079,0.444-0.236,0.585C290.332,465.8,290.145,465.871,289.925,465.871
				 M290.727,467.546v4.689c0,0.322-0.077,0.568-0.231,0.732c-0.156,0.168-0.35,0.25-0.588,0.25c-0.238,0-0.428-0.084-0.58-0.254
				c-0.146-0.173-0.222-0.416-0.222-0.729v-4.642c0-0.319,0.076-0.559,0.222-0.721c0.152-0.165,0.342-0.245,0.58-0.245
				c0.238,0,0.432,0.079,0.588,0.245C290.65,467.033,290.727,467.259,290.727,467.546"/>
			<path style="fill:#0E1333;" d="M295.952,472.477l-1.428-2.354l-0.88,0.83v1.291c0,0.312-0.083,0.551-0.248,0.718
				c-0.16,0.17-0.354,0.254-0.566,0.254c-0.249,0-0.447-0.082-0.588-0.25c-0.142-0.165-0.215-0.41-0.215-0.734v-6.915
				c0-0.358,0.072-0.632,0.207-0.821c0.139-0.191,0.341-0.283,0.596-0.283c0.25,0,0.445,0.086,0.593,0.257
				c0.146,0.169,0.221,0.421,0.221,0.751v3.933l1.823-1.914c0.227-0.235,0.395-0.4,0.517-0.486c0.118-0.087,0.262-0.13,0.431-0.13
				c0.204,0,0.371,0.065,0.51,0.193c0.132,0.129,0.2,0.291,0.2,0.483c0,0.237-0.221,0.556-0.659,0.951l-0.861,0.789l1.662,2.614
				c0.121,0.196,0.212,0.34,0.265,0.441c0.052,0.1,0.081,0.2,0.081,0.289c0,0.258-0.071,0.459-0.213,0.61
				c-0.14,0.148-0.327,0.221-0.554,0.221c-0.198,0-0.352-0.051-0.458-0.16C296.282,472.949,296.133,472.755,295.952,472.477"/>
			<path style="fill:#0E1333;" d="M299.474,473.217c-0.245,0-0.455-0.079-0.634-0.238c-0.178-0.156-0.268-0.378-0.268-0.665
				c0-0.241,0.086-0.449,0.256-0.622c0.172-0.174,0.38-0.262,0.63-0.262c0.248,0,0.46,0.087,0.639,0.258
				c0.174,0.172,0.264,0.383,0.264,0.626c0,0.283-0.089,0.505-0.264,0.662C299.919,473.138,299.711,473.217,299.474,473.217"/>
			<path style="fill:#0E1333;" d="M307.536,471.211c0,0.2-0.061,0.417-0.182,0.646c-0.12,0.231-0.305,0.449-0.554,0.656
				c-0.247,0.207-0.557,0.377-0.934,0.502c-0.375,0.126-0.8,0.192-1.269,0.192c-1.004,0-1.786-0.294-2.349-0.876
				c-0.56-0.585-0.841-1.368-0.841-2.35c0-0.667,0.128-1.254,0.387-1.765c0.255-0.509,0.628-0.904,1.113-1.184
				c0.487-0.28,1.072-0.419,1.746-0.419c0.421,0,0.805,0.061,1.158,0.184c0.35,0.122,0.645,0.282,0.891,0.474
				c0.242,0.197,0.428,0.402,0.556,0.62c0.129,0.22,0.192,0.426,0.192,0.617c0,0.192-0.071,0.357-0.214,0.492
				c-0.147,0.134-0.322,0.203-0.524,0.203c-0.137,0-0.249-0.035-0.338-0.104c-0.09-0.07-0.19-0.181-0.299-0.339
				c-0.198-0.299-0.404-0.526-0.622-0.674c-0.214-0.152-0.488-0.226-0.821-0.226c-0.476,0-0.865,0.186-1.159,0.561
				c-0.292,0.372-0.439,0.887-0.439,1.534c0,0.305,0.039,0.587,0.114,0.842c0.073,0.254,0.182,0.472,0.325,0.652
				c0.144,0.179,0.315,0.315,0.516,0.409c0.203,0.096,0.425,0.141,0.665,0.141c0.326,0,0.604-0.075,0.836-0.225
				c0.235-0.151,0.439-0.38,0.616-0.689c0.099-0.182,0.205-0.323,0.318-0.427c0.114-0.102,0.256-0.156,0.422-0.156
				c0.198,0,0.363,0.077,0.491,0.227C307.469,470.88,307.536,471.042,307.536,471.211"/>
			<path style="fill:#0E1333;" d="M314.53,469.923c0,0.481-0.076,0.928-0.222,1.337c-0.155,0.408-0.37,0.758-0.656,1.049
				c-0.285,0.293-0.626,0.518-1.02,0.675c-0.4,0.154-0.844,0.234-1.337,0.234c-0.491,0-0.933-0.08-1.326-0.239
				c-0.389-0.156-0.732-0.384-1.016-0.676c-0.288-0.298-0.505-0.646-0.657-1.048c-0.143-0.402-0.219-0.846-0.219-1.332
				c0-0.491,0.077-0.941,0.224-1.349c0.151-0.409,0.368-0.757,0.649-1.046c0.282-0.289,0.621-0.511,1.019-0.669
				c0.402-0.156,0.844-0.234,1.326-0.234c0.49,0,0.936,0.078,1.337,0.239c0.398,0.157,0.739,0.384,1.027,0.674
				c0.286,0.297,0.502,0.643,0.65,1.045C314.455,468.991,314.53,469.434,314.53,469.923 M312.903,469.923
				c0-0.662-0.146-1.176-0.436-1.543c-0.289-0.372-0.681-0.555-1.171-0.555c-0.317,0-0.597,0.082-0.839,0.246
				c-0.242,0.164-0.425,0.406-0.556,0.728c-0.131,0.321-0.197,0.696-0.197,1.124c0,0.424,0.064,0.792,0.193,1.108
				c0.13,0.319,0.314,0.561,0.553,0.729c0.241,0.167,0.522,0.253,0.845,0.253c0.49,0,0.882-0.185,1.171-0.557
				C312.756,471.086,312.903,470.574,312.903,469.923"/>
			<path style="fill:#0E1333;" d="M320.712,470.042v2.154c0,0.342-0.075,0.594-0.231,0.767c-0.156,0.17-0.357,0.255-0.611,0.255
				c-0.245,0-0.446-0.085-0.594-0.255c-0.154-0.173-0.233-0.425-0.233-0.767v-2.582c0-0.408-0.013-0.726-0.04-0.953
				c-0.029-0.221-0.105-0.41-0.226-0.552c-0.123-0.147-0.318-0.22-0.582-0.22c-0.532,0-0.879,0.181-1.048,0.55
				c-0.167,0.36-0.254,0.883-0.254,1.567v2.189c0,0.336-0.076,0.591-0.226,0.765c-0.156,0.171-0.355,0.258-0.603,0.258
				c-0.247,0-0.448-0.087-0.604-0.258c-0.157-0.173-0.235-0.428-0.235-0.765v-4.637c0-0.306,0.07-0.538,0.209-0.695
				c0.143-0.16,0.329-0.239,0.556-0.239c0.223,0,0.407,0.077,0.557,0.222c0.148,0.149,0.222,0.354,0.222,0.615v0.153
				c0.283-0.334,0.584-0.582,0.903-0.738c0.323-0.162,0.676-0.241,1.07-0.241c0.407,0,0.757,0.082,1.049,0.244
				c0.294,0.163,0.533,0.409,0.725,0.735c0.274-0.33,0.568-0.577,0.881-0.738c0.313-0.161,0.658-0.241,1.039-0.241
				c0.441,0,0.826,0.089,1.146,0.262c0.319,0.174,0.558,0.425,0.717,0.747c0.138,0.295,0.206,0.756,0.206,1.385v3.164
				c0,0.342-0.076,0.594-0.229,0.767c-0.154,0.17-0.359,0.255-0.612,0.255c-0.247,0-0.446-0.087-0.603-0.258
				c-0.156-0.173-0.235-0.428-0.235-0.765v-2.726c0-0.349-0.015-0.627-0.043-0.836c-0.029-0.211-0.11-0.388-0.239-0.529
				c-0.133-0.142-0.331-0.215-0.596-0.215c-0.214,0-0.416,0.066-0.609,0.192c-0.192,0.124-0.342,0.298-0.45,0.508
				C320.774,468.864,320.712,469.348,320.712,470.042"/>
		</g>
		<g>
			<path style="fill:#0E1333;" d="M245.272,469.531c-0.001-0.003-0.001-0.006-0.001-0.011
				C245.271,469.525,245.271,469.527,245.272,469.531z"/>
			<path style="fill:#0E1333;" d="M245.354,470.049c0.001,0,0.001,0,0.001,0c-0.031-0.148-0.055-0.294-0.074-0.439
				C245.3,469.756,245.324,469.903,245.354,470.049z"/>
			<path style="fill:#0E1333;" d="M245.89,471.553c-0.004-0.006-0.007-0.013-0.011-0.021
				C245.883,471.539,245.886,471.547,245.89,471.553z"/>
			<path style="fill:#0E1333;" d="M245.839,471.453c-0.014-0.027-0.027-0.056-0.041-0.084
				C245.811,471.398,245.825,471.425,245.839,471.453z"/>
			<path style="fill:#0E1333;" d="M245.504,470.628c0.079,0.25,0.175,0.493,0.286,0.724c-0.113-0.236-0.206-0.479-0.283-0.724
				C245.506,470.628,245.505,470.628,245.504,470.628z"/>
			<path style="fill:#0E1333;" d="M251.545,463.32c0.313,0,0.544,0.025,0.809,0.069l0.075-0.477c0,0-0.732-0.225-1.694-0.147
				l-0.076-0.259c0.299-0.063,0.524-0.329,0.524-0.646c0-0.364-0.296-0.659-0.661-0.659c-0.364,0-0.66,0.295-0.66,0.659
				c0,0.317,0.224,0.583,0.522,0.646l0.084,0.289c-1.021,0.14-1.834,0.539-1.834,0.539l0.144,0.441
				c0.618-0.206,1.154-0.331,1.64-0.383C250.895,463.342,251.253,463.32,251.545,463.32z"/>
			<path style="fill:#0E1333;" d="M245.878,465.732l0.004-0.005c0.024-0.031,0.047-0.06,0.071-0.089l-0.196-0.141l-0.305-0.223
				c-0.017,0.024-0.497,0.465-0.876,1.28c-0.016-0.026-0.035-0.051-0.056-0.074c-0.114-0.124-0.272-0.187-0.474-0.184
				c-0.003,0-0.006,0-0.009,0c-0.125,0-0.21-0.041-0.267-0.092c0.056-0.071,0.089-0.16,0.089-0.258c0-0.23-0.187-0.418-0.418-0.418
				c-0.23,0-0.418,0.188-0.418,0.418c0,0.231,0.187,0.418,0.418,0.418c0.036,0,0.071-0.006,0.104-0.013
				c0.103,0.114,0.266,0.214,0.505,0.209c0.123-0.001,0.213,0.031,0.273,0.097c0.069,0.076,0.093,0.185,0.1,0.267
				c-0.001,0.001-0.001,0.003-0.002,0.003c-0.272,0.743-0.194,1.669-0.194,1.669l0.661,0.026c0.013-0.337,0.062-0.926,0.232-1.394
				C245.449,466.322,245.861,465.756,245.878,465.732z"/>
			<path style="fill:#0E1333;" d="M257.295,463.873c-0.23,0-0.418,0.187-0.418,0.418c0,0.036,0.006,0.07,0.015,0.103
				c-0.115,0.104-0.214,0.267-0.211,0.507c0.002,0.123-0.03,0.212-0.096,0.273c-0.053,0.047-0.12,0.072-0.185,0.088
				c-0.492-0.689-1.097-1.11-1.097-1.11l-0.474,0.508c0.358,0.326,0.725,0.734,1.08,1.244c0.246,0.352,0.499,0.806,0.71,1.259
				l0.64-0.304c0,0-0.292-0.722-0.704-1.37c0.072-0.025,0.144-0.064,0.207-0.12c0.125-0.113,0.187-0.273,0.183-0.474
				c-0.001-0.13,0.042-0.218,0.093-0.276c0.071,0.054,0.16,0.089,0.258,0.089c0.232,0,0.419-0.187,0.419-0.418
				C257.714,464.059,257.527,463.873,257.295,463.873z"/>
			<path style="fill:#0E1333;" d="M255.634,469.624c-0.881,0.429-2.33,0.996-4.238,1.262c-0.749,0.104-1.475,0.142-2.143,0.142
				c-0.869,0-1.637-0.065-2.227-0.139c-0.673-0.085-1.199-0.188-1.52-0.261c0.077,0.245,0.171,0.488,0.283,0.724
				c0.002,0.006,0.005,0.013,0.008,0.017c0.013,0.028,0.027,0.056,0.041,0.084c0.013,0.027,0.027,0.054,0.041,0.079
				c0.004,0.007,0.007,0.015,0.011,0.021c0.189,0.357,0.417,0.684,0.675,0.968c0.9,0.984,1.817,1.14,1.826,1.141l0.014,0.002
				l0.013,0.005c0.008,0.003,0.821,0.266,2.057,0.266c1.216,0,2.409-0.245,3.546-0.729c0.842-0.431,1.639-1.085,2.034-1.669
				c0.305-0.452,0.526-0.933,0.656-1.434c0.069-0.266,0.124-0.692,0.092-1.141C256.556,469.128,256.164,469.366,255.634,469.624z"/>
			<path style="fill:#0E1333;" d="M246.161,465.94c-0.026,0.037-0.408,0.578-0.71,1.408c-0.226,0.622-0.216,1.527-0.216,1.538v0.002
				c0,0.212,0.012,0.423,0.035,0.632c0,0.005,0,0.008,0.001,0.011c0.002,0.027,0.007,0.052,0.009,0.079
				c0.019,0.145,0.043,0.291,0.074,0.439c0.438,0.111,3.049,0.72,5.968,0.314c1.829-0.254,3.218-0.795,4.062-1.204
				c0.701-0.34,1.151-0.648,1.325-0.774c-0.173-0.643-0.651-1.65-1.089-2.279c-1.253-1.791-2.604-2.25-3.298-2.364
				c-0.265-0.043-0.477-0.068-0.777-0.068c-0.28,0-0.626,0.023-1.089,0.071c-0.464,0.048-0.982,0.17-1.583,0.372
				c-0.842,0.282-1.605,0.724-2.204,1.28l-0.021,0.019C246.56,465.497,246.374,465.669,246.161,465.94z M253.829,465.524
				c0.601,0,1.089,0.488,1.089,1.089c0,0.601-0.489,1.09-1.089,1.09c-0.601,0-1.089-0.489-1.089-1.09
				C252.74,466.012,253.228,465.524,253.829,465.524z M248.678,465.48c0.973,0,1.76,0.789,1.76,1.761
				c0,0.972-0.788,1.759-1.76,1.759c-0.972,0-1.76-0.787-1.76-1.759C246.918,466.269,247.707,465.48,248.678,465.48z"/>
		</g>
	</g>
</g>
</svg>
