
<svg version="1.1" xmlns="http://www.w3.org/2000/svg" width="512" height="512" viewBox="0 0 512 512" preserveAspectRatio="xMidYMid meet">
<path d="M0 0 C0.7035965 0.00054382 1.40719299 0.00108765 2.1321106 0.00164795 C13.97460208 0.04360748 25.15825712 1.03810831 36.5625 4.375 C37.28888672 4.58398926 38.01527344 4.79297852 38.76367188 5.00830078 C55.4507315 9.9764597 70.30719547 18.14197911 83.5625 29.375 C84.56796875 30.21675781 85.5734375 31.05851562 86.609375 31.92578125 C98.75220244 42.39184465 108.41050222 55.04000986 115.5625 69.375 C115.87026367 69.98923828 116.17802734 70.60347656 116.49511719 71.23632812 C128.34103261 95.37377335 131.51768721 122.79786256 127.87890625 149.36328125 C123.3283315 175.90329449 110.10211589 199.15875579 91.5625 218.375 C90.83417969 219.16648438 90.10585938 219.95796875 89.35546875 220.7734375 C72.92850505 238.14518019 49.79327446 249.1999156 26.62365723 254.15332031 C18.22533977 255.67015966 9.97834121 255.37378878 1.5 255 C-28.73192229 252.22874954 -28.73192229 252.22874954 -57.33349609 259.13671875 C-65.89247406 264.88844886 -72.39375381 272.96532735 -77.73510742 281.70703125 C-79.4375 284.375 -79.4375 284.375 -81.4375 285.375 C-86.60792381 285.88356628 -86.60792381 285.88356628 -89.4375 285.375 C-92.4375 282.875 -92.4375 282.875 -94.4375 280.375 C-97.75363882 281.82080966 -99.92935728 283.62329792 -102.47167969 286.18212891 C-103.25218689 286.96278717 -104.03269409 287.74344543 -104.83685303 288.54776001 C-105.66928528 289.39051483 -106.50171753 290.23326965 -107.359375 291.1015625 C-108.21936096 291.96437836 -109.07934692 292.82719421 -109.96539307 293.71615601 C-112.7108231 296.47278029 -115.4492169 299.23627799 -118.1875 302 C-120.04771783 303.87024857 -121.90838946 305.74004589 -123.76953125 307.609375 C-128.33079945 312.1926936 -132.88631011 316.78167478 -137.4375 321.375 C-137.27668945 321.98762695 -137.11587891 322.60025391 -136.95019531 323.23144531 C-135.66153748 328.61926233 -135.84004213 334.38105596 -137.625 339.625 C-139.84120529 344.714064 -142.98610629 348.74194944 -147.6875 351.75 C-152.02741457 353.82489249 -156.20377478 353.31800102 -160.875 353.0625 C-163.79315984 352.91259128 -166.55600793 352.84465086 -169.4375 353.375 C-173.2646686 355.8284368 -175.85000757 358.65962625 -178.4375 362.375 C-174.88886453 366.71289055 -171.15238234 370.70502496 -167.14453125 374.625 C-166.66885712 375.09043213 -166.19318298 375.55586426 -165.70309448 376.03540039 C-163.71932763 377.97397188 -161.73368469 379.91023906 -159.73364258 381.83203125 C-158.25708141 383.25374529 -156.79385901 384.68816088 -155.33203125 386.125 C-154.03036011 387.38570313 -154.03036011 387.38570313 -152.70239258 388.671875 C-149.32280049 392.70538191 -147.68166567 396.57020874 -146.96875 401.83984375 C-146.87393986 412.37562054 -146.87393986 412.37562054 -149.5625 416.9375 C-153.69733535 422.34281549 -158.33913105 425.92608715 -164.8203125 427.98828125 C-168.0330238 428.46299531 -170.67605879 427.96062097 -173.875 427.4375 C-177.18031274 426.9168934 -177.18031274 426.9168934 -180.4375 427.375 C-184.44452301 430.19323869 -187.43778842 433.52209732 -190.4375 437.375 C-190.27894531 438.10203125 -190.12039062 438.8290625 -189.95703125 439.578125 C-188.84014109 445.590857 -188.70008029 451.29646243 -190.9375 457.0625 C-193.39680699 461.98111398 -196.94118429 465.28378295 -201.4375 468.375 C-206.51898938 470.91574469 -211.86239843 470.75491976 -217.4375 470.375 C-219.10964555 470.07033927 -220.77851005 469.74465017 -222.4375 469.375 C-226.29040268 472.37471158 -229.61926131 475.36797699 -232.4375 479.375 C-232.80152064 482.88822241 -232.39915082 485.78730657 -231.83984375 489.265625 C-231.33920993 493.1346009 -231.84844455 495.72696526 -233.29296875 499.30859375 C-236.0313443 504.25262332 -239.40122762 508.13960463 -244.23828125 511.07421875 C-247.81550696 512.52869514 -250.46109017 512.80821112 -254.3125 512.8125 C-255.46492188 512.83183594 -256.61734375 512.85117187 -257.8046875 512.87109375 C-262.93184645 512.17093333 -267.13533261 510.22266698 -271.18649292 506.97129822 C-272.88543072 505.38523776 -274.51215463 503.75158809 -276.125 502.078125 C-276.71297363 501.48449158 -277.30094727 500.89085815 -277.90673828 500.27923584 C-279.76003546 498.40376678 -281.59883562 496.5148054 -283.4375 494.625 C-284.70088563 493.34152463 -285.96520056 492.0589633 -287.23046875 490.77734375 C-290.31031507 487.65368518 -293.37725087 484.51785552 -296.4375 481.375 C-301.91765988 485.99701388 -301.91765988 485.99701388 -307.05078125 490.99609375 C-324.55202702 509.05375102 -324.55202702 509.05375102 -334.69921875 511.9375 C-343.99249837 513.42230359 -354.18996913 513.607027 -362.9453125 509.828125 C-370.74436862 505.28071297 -377.41700196 498.49749267 -381.4375 490.375 C-384.45816677 481.68797901 -384.49526526 472.18915936 -382.85546875 463.17578125 C-378.80198337 450.20092621 -365.31401678 440.11220414 -355.92163086 430.74560547 C-354.47183086 429.29608805 -353.02225203 427.8463494 -351.57287598 426.39640808 C-347.66461172 422.48785861 -343.7532866 418.58238554 -339.84137797 414.67748404 C-335.74365156 410.58603717 -331.64878401 406.49173103 -327.55360413 402.3977356 C-319.81043844 394.65766972 -312.06472868 386.92015504 -304.31808716 379.18356812 C-295.49381196 370.37049613 -286.67239871 361.55456184 -277.85121715 352.73839355 C-259.71647984 334.61409002 -241.57817601 316.49335932 -223.4375 298.375 C-223.67545288 297.47418701 -223.67545288 297.47418701 -223.91821289 296.55517578 C-225.32717623 290.63978197 -225.47284914 284.20979358 -223.37890625 278.4765625 C-220.55797849 273.38513191 -217.4330328 270.07328257 -212.3671875 267.21484375 C-208.70439738 265.62071444 -205.48185296 265.23772927 -201.5 265.25 C-200.66597656 265.24742187 -199.83195313 265.24484375 -198.97265625 265.2421875 C-196.4375 265.375 -196.4375 265.375 -191.4375 266.375 C-177.9075 252.845 -164.3775 239.315 -150.4375 225.375 C-153.4075 221.415 -153.4075 221.415 -156.4375 217.375 C-157.25 213.875 -157.25 213.875 -156.4375 210.375 C-153.15015226 205.48220336 -149.16439762 202.06789346 -144.1953125 198.96875 C-137.3295082 194.25184938 -131.41432683 189.32449218 -128.4375 181.375 C-125.3172922 166.48664163 -126.69811954 150.52421253 -127.23908997 135.42631531 C-128.16573222 106.47704712 -121.18221217 79.73972219 -105.4375 55.375 C-102.60744836 51.54610661 -99.58277697 47.94721319 -96.4375 44.375 C-95.72851562 43.53324219 -95.01953125 42.69148438 -94.2890625 41.82421875 C-77.731034 22.60614596 -55.27225407 9.67350958 -30.8515625 3.3828125 C-29.38212857 3.03857273 -27.91064361 2.70300152 -26.4375 2.375 C-25.63143311 2.18953613 -24.82536621 2.00407227 -23.99487305 1.81298828 C-16.02136248 0.15452176 -8.12142348 -0.02365846 0 0 Z M-23.1875 81.6875 C-25.52601102 83.17934405 -25.52601102 83.17934405 -26.4375 85.375 C-26.53235336 87.42151642 -26.56936678 89.47083656 -26.578125 91.51953125 C-26.59746094 92.75380859 -26.61679687 93.98808594 -26.63671875 95.25976562 C-26.67041941 97.86638235 -26.68879026 100.47324487 -26.69140625 103.08007812 C-26.71589844 104.31822266 -26.74039062 105.55636719 -26.765625 106.83203125 C-26.7749707 107.96616455 -26.78431641 109.10029785 -26.79394531 110.26879883 C-27.4375 113.375 -27.4375 113.375 -29.71875 116.10473633 C-31.96635303 117.98157366 -34.14279597 119.67440694 -36.609375 121.2421875 C-37.35574219 121.73589844 -38.10210937 122.22960937 -38.87109375 122.73828125 C-40.42279829 123.75094509 -41.98287462 124.75088881 -43.55078125 125.73828125 C-45.69752017 127.17566296 -47.60759343 128.5506386 -49.4375 130.375 C-50.93875104 133.90024126 -50.93875104 133.90024126 -50.4375 137.375 C-48.41724948 139.89950127 -46.81164946 141.21598035 -43.82788086 142.48413086 C-42.86245361 142.76651611 -41.89702637 143.04890137 -40.90234375 143.33984375 C-39.84595703 143.66533203 -38.78957031 143.99082031 -37.70117188 144.32617188 C-35.48119327 144.9844744 -33.25982623 145.63811247 -31.03710938 146.28710938 C-29.98201172 146.61388672 -28.92691406 146.94066406 -27.83984375 147.27734375 C-26.87554443 147.56085693 -25.91124512 147.84437012 -24.91772461 148.13647461 C-22.4375 149.375 -22.4375 149.375 -20.70507812 151.69726562 C-19.50975488 154.22236295 -18.56684131 156.64585352 -17.75390625 159.31640625 C-17.46580078 160.22970703 -17.17769531 161.14300781 -16.88085938 162.08398438 C-16.29285695 163.98879932 -15.70953226 165.89506445 -15.13085938 167.80273438 C-13.90026791 171.68087897 -12.90072759 174.77625842 -10.39453125 178.015625 C-8.43941772 179.62309414 -8.43941772 179.62309414 -5.5625 179.5625 C1.60033574 176.84062242 5.8931629 168.22011184 10.13574219 162.0871582 C13.3502835 157.48110825 13.3502835 157.48110825 15.5625 156.375 C17.62046088 156.26822421 19.68155841 156.2195126 21.7421875 156.19921875 C22.98097656 156.17537109 24.21976562 156.15152344 25.49609375 156.12695312 C28.11572155 156.08411481 30.73556395 156.05279364 33.35546875 156.03320312 C34.59683594 156.00548828 35.83820313 155.97777344 37.1171875 155.94921875 C38.25655762 155.93463623 39.39592773 155.92005371 40.56982422 155.9050293 C43.65842478 155.60033348 43.65842478 155.60033348 45.93115234 153.51464844 C47.7659364 151.43593247 47.7659364 151.43593247 48.109375 148.56640625 C47.37225027 144.26475692 45.44017652 141.71888402 42.8125 138.3125 C42.3690625 137.71373047 41.925625 137.11496094 41.46875 136.49804688 C39.49141485 133.84318365 37.49338224 131.29694459 35.296875 128.81640625 C33.10588726 125.73224558 32.60251808 124.18116441 32.5625 120.375 C33.46414267 116.78336953 34.71500543 113.34521131 36 109.875 C39.15729126 101.85591627 39.15729126 101.85591627 39.5625 93.375 C38.27357713 90.75216666 38.27357713 90.75216666 35.5625 89.375 C28.33955949 89.25659114 21.99039699 91.82045224 15.30859375 94.31640625 C11.19836115 95.47790055 7.78476224 96.19057513 3.5625 95.375 C0.89450907 94.11110441 -1.31896787 92.45542907 -3.625 90.625 C-4.21474609 90.1815625 -4.80449219 89.738125 -5.41210938 89.28125 C-8.05941031 87.27884217 -10.6394743 85.20948932 -13.20703125 83.10546875 C-15.34854523 81.26742828 -15.34854523 81.26742828 -17.9375 80.4375 C-20.56904935 80.18278075 -20.56904935 80.18278075 -23.1875 81.6875 Z " fill="#020201" transform="translate(383.4375,-0.37499999999999994)" />
<path d="M0 0 C1.68609375 0.56074219 1.68609375 0.56074219 3.40625 1.1328125 C15.49306302 5.47830956 26.43576936 11.39514434 36 20 C36.47824219 20.42909668 36.95648438 20.85819336 37.44921875 21.30029297 C52.92051085 35.38453799 62.57167324 53.14205011 67.2734375 73.44140625 C71.09010825 92.13488504 69.89454136 111.93283145 62.46972656 129.60742188 C57.86164534 140.05240599 52.65513008 149.491382 45 158 C44.57090332 158.47824219 44.14180664 158.95648438 43.69970703 159.44921875 C30.34146509 174.1230094 13.22821979 183.90336343 -6 189 C-23.27002978 192.87165407 -41.1423452 192.34382384 -58 187 C-59.12277344 186.649375 -60.24554688 186.29875 -61.40234375 185.9375 C-75.80716723 180.90890707 -87.25555992 172.61400682 -98 162 C-98.98033203 161.12794922 -98.98033203 161.12794922 -99.98046875 160.23828125 C-112.84671726 148.54972139 -120.72591743 129.65441252 -124.6875 113.1328125 C-127.74194089 96.80003831 -127.12904967 79.79983116 -122 64 C-121.79101074 63.35482422 -121.58202148 62.70964844 -121.36669922 62.04492188 C-116.52435793 47.6666141 -108.53956839 35.86356959 -98 25 C-97.40058594 24.32710937 -96.80117188 23.65421875 -96.18359375 22.9609375 C-83.92406592 9.66874966 -66.743529 1.97619276 -49.4921875 -2.4921875 C-33.15762241 -5.82054716 -15.79623721 -5.3469564 0 0 Z M-52.75 47.3125 C-55.08851102 48.80434405 -55.08851102 48.80434405 -56 51 C-56.09485336 53.04651642 -56.13186678 55.09583656 -56.140625 57.14453125 C-56.15996094 58.37880859 -56.17929687 59.61308594 -56.19921875 60.88476562 C-56.23291941 63.49138235 -56.25129026 66.09824487 -56.25390625 68.70507812 C-56.27839844 69.94322266 -56.30289063 71.18136719 -56.328125 72.45703125 C-56.3374707 73.59116455 -56.34681641 74.72529785 -56.35644531 75.89379883 C-57 79 -57 79 -59.28125 81.72973633 C-61.52885303 83.60657366 -63.70529597 85.29940694 -66.171875 86.8671875 C-66.91824219 87.36089844 -67.66460937 87.85460937 -68.43359375 88.36328125 C-69.98529829 89.37594509 -71.54537462 90.37588881 -73.11328125 91.36328125 C-75.26002017 92.80066296 -77.17009343 94.1756386 -79 96 C-80.50125104 99.52524126 -80.50125104 99.52524126 -80 103 C-77.97974948 105.52450127 -76.37414946 106.84098035 -73.39038086 108.10913086 C-72.42495361 108.39151611 -71.45952637 108.67390137 -70.46484375 108.96484375 C-69.40845703 109.29033203 -68.35207031 109.61582031 -67.26367188 109.95117188 C-65.04369327 110.6094744 -62.82232623 111.26311247 -60.59960938 111.91210938 C-59.54451172 112.23888672 -58.48941406 112.56566406 -57.40234375 112.90234375 C-56.43804443 113.18585693 -55.47374512 113.46937012 -54.48022461 113.76147461 C-52 115 -52 115 -50.26757812 117.32226562 C-49.07225488 119.84736295 -48.12934131 122.27085352 -47.31640625 124.94140625 C-47.02830078 125.85470703 -46.74019531 126.76800781 -46.44335938 127.70898438 C-45.85535695 129.61379932 -45.27203226 131.52006445 -44.69335938 133.42773438 C-43.46276791 137.30587897 -42.46322759 140.40125842 -39.95703125 143.640625 C-38.00191772 145.24809414 -38.00191772 145.24809414 -35.125 145.1875 C-27.96216426 142.46562242 -23.6693371 133.84511184 -19.42675781 127.7121582 C-16.2122165 123.10610825 -16.2122165 123.10610825 -14 122 C-11.94203912 121.89322421 -9.88094159 121.8445126 -7.8203125 121.82421875 C-6.58152344 121.80037109 -5.34273438 121.77652344 -4.06640625 121.75195312 C-1.44677845 121.70911481 1.17306395 121.67779364 3.79296875 121.65820312 C5.03433594 121.63048828 6.27570313 121.60277344 7.5546875 121.57421875 C8.69405762 121.55963623 9.83342773 121.54505371 11.00732422 121.5300293 C14.09592478 121.22533348 14.09592478 121.22533348 16.36865234 119.13964844 C18.2034364 117.06093247 18.2034364 117.06093247 18.546875 114.19140625 C17.80975027 109.88975692 15.87767652 107.34388402 13.25 103.9375 C12.8065625 103.33873047 12.363125 102.73996094 11.90625 102.12304688 C9.92891485 99.46818365 7.93088224 96.92194459 5.734375 94.44140625 C3.54338726 91.35724558 3.04001808 89.80616441 3 86 C3.90164267 82.40836953 5.15250543 78.97021131 6.4375 75.5 C9.59479126 67.48091627 9.59479126 67.48091627 10 59 C8.71107713 56.37716666 8.71107713 56.37716666 6 55 C-1.22294051 54.88159114 -7.57210301 57.44545224 -14.25390625 59.94140625 C-18.36413885 61.10290055 -21.77773776 61.81557513 -26 61 C-28.66799093 59.73610441 -30.88146787 58.08042907 -33.1875 56.25 C-33.77724609 55.8065625 -34.36699219 55.363125 -34.97460938 54.90625 C-37.62191031 52.90384217 -40.2019743 50.83448932 -42.76953125 48.73046875 C-44.91104523 46.89242828 -44.91104523 46.89242828 -47.5 46.0625 C-50.13154935 45.80778075 -50.13154935 45.80778075 -52.75 47.3125 Z " fill="#FB9D5F" transform="translate(413,34)" />
<path d="M0 0 C8.21625773 3.89920983 15.49317656 8.67296788 22.5625 14.375 C23.08150879 14.79088379 23.60051758 15.20676758 24.13525391 15.63525391 C40.18851878 28.7577167 53.05024063 47.73259699 59 67.625 C59.5443386 69.86942929 60.06567603 72.11957691 60.5625 74.375 C61.00529297 76.03402344 61.00529297 76.03402344 61.45703125 77.7265625 C65.41844126 94.04250691 65.15452103 112.23335034 60.5625 128.375 C60.27246094 129.41333984 60.27246094 129.41333984 59.9765625 130.47265625 C53.16849448 154.30089433 40.13967302 174.85871676 20.97265625 190.68798828 C12.57601168 197.23936027 3.19257552 201.94055046 -6.4375 206.375 C-7.34371094 206.7978125 -8.24992188 207.220625 -9.18359375 207.65625 C-19.97510132 212.33434195 -32.62326367 214.78354139 -44.35302734 214.18359375 C-45.70675664 214.12090207 -47.06055111 214.05960617 -48.41439819 213.99951172 C-49.47765383 213.95114166 -49.47765383 213.95114166 -50.56238937 213.90179443 C-55.20247597 213.7144019 -59.84596887 213.63874635 -64.48886681 213.55297852 C-68.53230318 213.47239811 -72.56370871 213.34759606 -76.6015625 213.11669922 C-94.06136678 211.74539806 -94.06136678 211.74539806 -110.48097229 216.54174805 C-119.58079594 222.86760297 -126.79472974 231.60235567 -133.4375 240.375 C-136.33774504 240.02031021 -137.55221534 239.27767913 -139.81671143 237.35655212 C-140.69607361 236.47052811 -141.57543579 235.58450409 -142.48144531 234.67163086 C-142.96970795 234.1838063 -143.45797058 233.69598175 -143.96102905 233.19337463 C-145.56977606 231.58254109 -147.16764197 229.96135007 -148.765625 228.33984375 C-149.88026461 227.21960772 -150.99556934 226.10003311 -152.11151123 224.98109436 C-155.04444172 222.03671882 -157.96825096 219.08344506 -160.89025879 216.12823486 C-163.87451304 213.11327257 -166.86729589 210.10680278 -169.859375 207.09960938 C-175.7271361 201.1996901 -181.58528951 195.29034427 -187.4375 189.375 C-185.71540343 185.69157965 -183.64699721 183.38017675 -180.71875 180.53125 C-179.78675781 179.61472656 -178.85476562 178.69820312 -177.89453125 177.75390625 C-176.41440757 176.31114205 -174.9325433 174.87018003 -173.45068359 173.42919922 C-172.01513258 172.02988264 -170.58561187 170.62438802 -169.15625 169.21875 C-168.29966797 168.38537109 -167.44308594 167.55199219 -166.56054688 166.69335938 C-164.54222771 164.48936228 -163.50681041 163.12381258 -162.4375 160.375 C-162.14366864 157.26303071 -162.14366864 157.26303071 -162.19799805 153.76831055 C-162.19598389 153.11216766 -162.19396973 152.45602478 -162.19189453 151.77999878 C-162.18835345 150.35539356 -162.18911068 148.9307726 -162.19367027 147.50617027 C-162.19930503 145.2268189 -162.19002893 142.94796904 -162.1764679 140.6686554 C-162.13957283 134.1873693 -162.12058593 127.70624192 -162.13208008 121.22485352 C-162.16923153 91.04254727 -159.56019257 64.24355063 -142.4375 38.375 C-139.90478126 34.91804317 -137.21721706 31.63509535 -134.4375 28.375 C-133.84582031 27.63765625 -133.25414062 26.9003125 -132.64453125 26.140625 C-120.16196193 11.12960347 -100.9177143 -0.91689239 -82.24804688 -6.25048828 C-77.34211041 -7.52707558 -72.40282469 -8.60687349 -67.4375 -9.625 C-66.64190674 -9.801521 -65.84631348 -9.97804199 -65.02661133 -10.15991211 C-43.40386166 -14.04405526 -19.67327052 -8.96053766 0 0 Z M-106.4375 22.375 C-110.69002687 25.78359757 -114.5638462 29.5484423 -118.4375 33.375 C-119.07945312 33.94476563 -119.72140625 34.51453125 -120.3828125 35.1015625 C-134.00735643 47.458707 -141.23222872 65.95008106 -145.4375 83.375 C-149.41005871 101.94868508 -146.17720957 122.19186045 -139.1015625 139.55078125 C-131.18363219 158.12099207 -118.2968718 173.8782795 -101.3527832 184.92431641 C-94.11726816 189.39983625 -86.48782747 192.66691051 -78.4375 195.375 C-77.43710693 195.71168701 -77.43710693 195.71168701 -76.41650391 196.05517578 C-60.83424356 201.03523102 -42.56331873 201.5330197 -26.72265625 197.4140625 C-11.18275737 192.49894585 3.28605825 186.42000855 15.5625 175.375 C16.04074219 174.94590332 16.51898438 174.51680664 17.01171875 174.07470703 C31.47559257 160.90756226 41.74775284 143.63398862 46.51171875 124.578125 C50.419438 104.83254681 49.72420329 84.85875134 42.25 66 C41.3845491 64.110784 40.48770185 62.23568372 39.5625 60.375 C39.0365625 59.29734375 38.510625 58.2196875 37.96875 57.109375 C34.23616942 49.81387659 30.04158523 43.46496094 24.5625 37.375 C24.13340332 36.89675781 23.70430664 36.41851562 23.26220703 35.92578125 C9.36385171 20.65868568 -8.55760813 10.82342248 -28.61499023 5.83325195 C-35.14883951 4.37471644 -41.44315267 4.02490118 -48.125 4.0625 C-49.70764648 4.07095947 -49.70764648 4.07095947 -51.32226562 4.07958984 C-71.22834446 4.38738439 -90.30002041 10.61370983 -106.4375 22.375 Z " fill="#FCB86C" transform="translate(433.4375,25.625)" />
<path d="M0 0 C2.78690044 1.34481542 4.84142643 2.5945303 7.02441406 4.79736328 C7.58469299 5.35779327 8.14497192 5.91822327 8.722229 6.49563599 C9.31404968 7.09777924 9.90587036 7.69992249 10.515625 8.3203125 C11.13145447 8.93897186 11.74728394 9.55763123 12.3817749 10.19503784 C14.34260336 12.16703814 16.29635301 14.14588737 18.25 16.125 C19.58026799 17.46530164 20.910992 18.80515083 22.2421875 20.14453125 C25.5001015 23.42446589 28.75168533 26.71055942 32 30 C30.3537384 34.20476645 27.25557286 37.03181772 24.1187439 40.15541077 C23.51014672 40.76924462 22.90154954 41.38307848 22.27451003 42.01551336 C20.23122713 44.07381376 18.18084178 46.12488716 16.13037109 48.17602539 C14.6648478 49.649169 13.19972899 51.12271509 11.73498535 52.59663391 C7.75210006 56.60148431 3.76264217 60.59972381 -0.22869921 64.59614491 C-2.72199711 67.09308419 -5.21399119 69.59131722 -7.70554733 72.08999443 C-16.39774437 80.80669356 -25.09565463 89.51764964 -33.79833984 98.22387695 C-41.91036039 106.33953269 -50.00915763 114.46822258 -58.10202849 122.60297018 C-65.05038025 129.5860128 -72.00831969 136.55940504 -78.97368944 143.52547258 C-83.13373603 147.68631242 -87.28970219 151.85104009 -91.43590164 156.02568245 C-95.33680331 159.95274328 -99.24948932 163.8676672 -103.17150879 167.77363396 C-104.60770795 169.20801693 -106.03965535 170.64667182 -107.46696091 172.08990479 C-109.41887234 174.06226003 -111.38565203 176.0185116 -113.35684204 177.97157288 C-113.91581731 178.54374812 -114.47479259 179.11592336 -115.05070651 179.70543724 C-119.0551063 183.62643528 -122.63318292 185.35492972 -128 187 C-132.94556863 187.79790424 -137.56902388 187.5099751 -142.1875 185.5 C-147.64371649 182.3789999 -151.645179 177.709642 -154.4375 172.125 C-155.32996468 167.16686287 -156.18892146 162.02321402 -154.29843211 157.2160387 C-151.83045421 152.03771361 -148.86584949 148.30229589 -144.78643799 144.30541992 C-143.85638683 143.37024221 -143.85638683 143.37024221 -142.90754676 142.41617203 C-140.8425887 140.34466354 -138.76373413 138.28771097 -136.68457031 136.23046875 C-135.19545503 134.74248255 -133.70722155 133.25361342 -132.21980286 131.76393127 C-128.18981873 127.73280148 -124.14763814 123.71410716 -120.10313129 119.69755554 C-115.87455975 115.49402169 -111.65734427 111.27912606 -107.43890381 107.06542969 C-99.45364845 99.09259708 -91.45825321 91.13001422 -83.45915198 83.17107582 C-74.3509713 74.10763445 -65.25417217 65.03280623 -56.15830469 55.95701027 C-37.4514942 37.29198825 -18.73045733 18.64129005 0 0 Z " fill="#FEBB6E" transform="translate(170,310)" />
<path d="M0 0 C1.68609375 0.56074219 1.68609375 0.56074219 3.40625 1.1328125 C15.49306302 5.47830956 26.43576936 11.39514434 36 20 C36.47824219 20.42909668 36.95648438 20.85819336 37.44921875 21.30029297 C52.92051085 35.38453799 62.57167324 53.14205011 67.2734375 73.44140625 C71.09010825 92.13488504 69.89454136 111.93283145 62.46972656 129.60742188 C57.86164534 140.05240599 52.65513008 149.491382 45 158 C44.57090332 158.47824219 44.14180664 158.95648438 43.69970703 159.44921875 C30.34146509 174.1230094 13.22821979 183.90336343 -6 189 C-23.27002978 192.87165407 -41.1423452 192.34382384 -58 187 C-59.12277344 186.649375 -60.24554688 186.29875 -61.40234375 185.9375 C-75.80716723 180.90890707 -87.25555992 172.61400682 -98 162 C-98.98033203 161.12794922 -98.98033203 161.12794922 -99.98046875 160.23828125 C-112.84671726 148.54972139 -120.72591743 129.65441252 -124.6875 113.1328125 C-127.74194089 96.80003831 -127.12904967 79.79983116 -122 64 C-121.79101074 63.35482422 -121.58202148 62.70964844 -121.36669922 62.04492188 C-116.52435793 47.6666141 -108.53956839 35.86356959 -98 25 C-97.40058594 24.32710937 -96.80117188 23.65421875 -96.18359375 22.9609375 C-83.92406592 9.66874966 -66.743529 1.97619276 -49.4921875 -2.4921875 C-33.15762241 -5.82054716 -15.79623721 -5.3469564 0 0 Z M-80.484375 28.890625 C-94.08727503 40.29678341 -103.88799306 54.57435113 -108.76464844 71.75610352 C-113.20842397 88.94305888 -112.18542111 106.39455118 -106 123 C-102.08812995 132.71016404 -97.10388951 141.25771124 -90 149 C-89.33613281 149.75539062 -88.67226563 150.51078125 -87.98828125 151.2890625 C-77.64775348 162.41325319 -63.29415361 170.32097881 -48.6875 174.3125 C-29.97468815 177.80132933 -11.24223691 176.86841488 6.19775391 168.96386719 C20.98608579 161.84531691 33.52839204 151.13263539 42 137 C52.0288331 118.71458082 55.84928211 100.89571385 53.5703125 80.07421875 C50.55225766 62.43163894 42.04611133 47.20217881 29.8125 34.25 C17.25497729 22.21863047 1.38620697 14.48389325 -15.703125 11.32958984 C-39.34721035 7.93678423 -61.68559705 14.36941329 -80.484375 28.890625 Z " fill="#030201" transform="translate(413,34)" />
<path d="M0 0 C3.40977569 1.5138539 6.21183406 3.66009163 9.11328125 5.97265625 C9.97385132 6.65545654 9.97385132 6.65545654 10.85180664 7.35205078 C12.00061 8.27706963 13.13586045 9.21922096 14.25561523 10.17919922 C16.03424703 11.69278986 16.03424703 11.69278986 18.91015625 13.4453125 C21.40312392 13.52825557 21.40312392 13.52825557 23.91015625 12.4453125 C25.72773438 11.85556641 25.72773438 11.85556641 27.58203125 11.25390625 C28.57178955 10.91915283 28.57178955 10.91915283 29.58154297 10.57763672 C42.99945057 6.092393 42.99945057 6.092393 48.91015625 7.4453125 C54.47985105 9.30472057 58.7478766 11.74036068 62.41015625 16.3828125 C65.82578532 21.54485078 67.1725182 25.98781561 67.12402344 32.22509766 C66.75025529 36.10528893 65.29535625 39.54084731 63.84765625 43.1328125 C61.641979 48.4215598 61.641979 48.4215598 60.921875 54.03125 C62.35274586 57.52642073 64.51664119 60.39775515 66.78515625 63.3828125 C74.38580248 73.49145295 74.38580248 73.49145295 75.37890625 79.0859375 C75.45215774 85.20243694 74.53634919 89.83995773 71.54296875 95.2109375 C68.92767352 98.78976256 65.74987915 101.26839847 61.91015625 103.4453125 C58.73174941 104.50478145 56.81613246 104.44920684 53.5 104.26953125 C42.24044669 103.47375456 42.24044669 103.47375456 31.83837891 106.78173828 C29.16537515 109.52050451 27.41382438 112.52730949 25.70703125 115.9296875 C23.27202481 120.69383053 20.02333324 124.22173979 15.28515625 126.7578125 C10.25883513 129.09519435 5.34609214 129.11259804 -0.08984375 128.4453125 C-5.11936775 126.87873945 -9.75469007 124.62118359 -13.08984375 120.4453125 C-16.89623993 113.15600989 -21.08984375 103.79408863 -21.08984375 95.4453125 C-22.07855469 95.33703125 -23.06726563 95.22875 -24.0859375 95.1171875 C-28.32500022 94.50718904 -32.1564617 93.20089698 -36.15234375 91.6953125 C-36.83361328 91.45554687 -37.51488281 91.21578125 -38.21679688 90.96875 C-44.27216254 88.71180295 -48.31199753 85.59744213 -52.46484375 80.5703125 C-55.49296602 74.71936438 -54.91205734 67.78519081 -54.08984375 61.4453125 C-52.92289947 57.49705023 -51.16799059 55.17167113 -48.08984375 52.4453125 C-46.72135002 51.63166948 -45.33662674 50.84503427 -43.94140625 50.078125 C-36.80180405 46.13833167 -36.80180405 46.13833167 -31.08984375 40.4453125 C-29.27392234 34.37155296 -29.67428824 28.21977345 -30.00390625 21.95703125 C-30.25950103 16.8550491 -29.57701923 13.89296747 -27.08984375 9.4453125 C-24.14198401 5.14985973 -21.18071928 2.2640807 -16.4609375 0.140625 C-11.08120835 -1.4369562 -5.41774967 -1.43798216 0 0 Z M-11.83984375 15.7578125 C-14.17835477 17.24965655 -14.17835477 17.24965655 -15.08984375 19.4453125 C-15.18469711 21.49182892 -15.22171053 23.54114906 -15.23046875 25.58984375 C-15.24980469 26.82412109 -15.26914062 28.05839844 -15.2890625 29.33007812 C-15.32276316 31.93669485 -15.34113401 34.54355737 -15.34375 37.15039062 C-15.36824219 38.38853516 -15.39273438 39.62667969 -15.41796875 40.90234375 C-15.42731445 42.03647705 -15.43666016 43.17061035 -15.44628906 44.33911133 C-16.08984375 47.4453125 -16.08984375 47.4453125 -18.37109375 50.17504883 C-20.61869678 52.05188616 -22.79513972 53.74471944 -25.26171875 55.3125 C-26.00808594 55.80621094 -26.75445312 56.29992187 -27.5234375 56.80859375 C-29.07514204 57.82125759 -30.63521837 58.82120131 -32.203125 59.80859375 C-34.34986392 61.24597546 -36.25993718 62.6209511 -38.08984375 64.4453125 C-39.59109479 67.97055376 -39.59109479 67.97055376 -39.08984375 71.4453125 C-37.06959323 73.96981377 -35.46399321 75.28629285 -32.48022461 76.55444336 C-31.51479736 76.83682861 -30.54937012 77.11921387 -29.5546875 77.41015625 C-28.49830078 77.73564453 -27.44191406 78.06113281 -26.35351562 78.39648438 C-24.13353702 79.0547869 -21.91216998 79.70842497 -19.68945312 80.35742188 C-18.63435547 80.68419922 -17.57925781 81.01097656 -16.4921875 81.34765625 C-15.52788818 81.63116943 -14.56358887 81.91468262 -13.57006836 82.20678711 C-11.08984375 83.4453125 -11.08984375 83.4453125 -9.35742188 85.76757812 C-8.16209863 88.29267545 -7.21918506 90.71616602 -6.40625 93.38671875 C-6.11814453 94.30001953 -5.83003906 95.21332031 -5.53320312 96.15429688 C-4.9452007 98.05911182 -4.36187601 99.96537695 -3.78320312 101.87304688 C-2.55261166 105.75119147 -1.55307134 108.84657092 0.953125 112.0859375 C2.90823853 113.69340664 2.90823853 113.69340664 5.78515625 113.6328125 C12.94799199 110.91093492 17.24081915 102.29042434 21.48339844 96.1574707 C24.69793975 91.55142075 24.69793975 91.55142075 26.91015625 90.4453125 C28.96811713 90.33853671 31.02921466 90.2898251 33.08984375 90.26953125 C34.32863281 90.24568359 35.56742187 90.22183594 36.84375 90.19726562 C39.4633778 90.15442731 42.0832202 90.12310614 44.703125 90.10351562 C45.94449219 90.07580078 47.18585938 90.04808594 48.46484375 90.01953125 C49.60421387 90.00494873 50.74358398 89.99036621 51.91748047 89.9753418 C55.00608103 89.67064598 55.00608103 89.67064598 57.27880859 87.58496094 C59.11359265 85.50624497 59.11359265 85.50624497 59.45703125 82.63671875 C58.71990652 78.33506942 56.78783277 75.78919652 54.16015625 72.3828125 C53.71671875 71.78404297 53.27328125 71.18527344 52.81640625 70.56835938 C50.8390711 67.91349615 48.84103849 65.36725709 46.64453125 62.88671875 C44.45354351 59.80255808 43.95017433 58.25147691 43.91015625 54.4453125 C44.81179892 50.85368203 46.06266168 47.41552381 47.34765625 43.9453125 C50.50494751 35.92622877 50.50494751 35.92622877 50.91015625 27.4453125 C49.62123338 24.82247916 49.62123338 24.82247916 46.91015625 23.4453125 C39.68721574 23.32690364 33.33805324 25.89076474 26.65625 28.38671875 C22.5460174 29.54821305 19.13241849 30.26088763 14.91015625 29.4453125 C12.24216532 28.18141691 10.02868838 26.52574157 7.72265625 24.6953125 C7.13291016 24.251875 6.54316406 23.8084375 5.93554688 23.3515625 C3.28824594 21.34915467 0.70818195 19.27980182 -1.859375 17.17578125 C-4.00088898 15.33774078 -4.00088898 15.33774078 -6.58984375 14.5078125 C-9.2213931 14.25309325 -9.2213931 14.25309325 -11.83984375 15.7578125 Z " fill="#020100" transform="translate(372.08984375,65.5546875)" />
<path d="M0 0 C2.79570164 1.34727261 4.83967803 2.59706233 7.015625 4.8203125 C7.54414063 5.35527344 8.07265625 5.89023437 8.6171875 6.44140625 C9.15601563 6.99699219 9.69484375 7.55257813 10.25 8.125 C10.80429688 8.68832031 11.35859375 9.25164062 11.9296875 9.83203125 C13.29104485 11.21686028 14.64614859 12.60783204 16 14 C14.68773892 16.90328538 13.28744938 18.95571228 11.02246094 21.1887207 C10.12077179 22.08534172 10.12077179 22.08534172 9.2008667 23.00007629 C8.22745331 23.95330025 8.22745331 23.95330025 7.234375 24.92578125 C6.56335754 25.59159714 5.89234009 26.25741302 5.20098877 26.94340515 C3.05535685 29.07124553 0.903177 31.19229698 -1.25 33.3125 C-3.38806055 35.42280294 -5.52459683 37.53459168 -7.65814209 39.64945984 C-8.98430286 40.96351872 -10.31312651 42.27489775 -11.64508057 43.58308411 C-14.55788031 46.46488797 -17.34481841 49.3610899 -19.95605469 52.52026367 C-22.04771542 55.01501276 -24.23950615 57.15007516 -26.72061157 59.25593567 C-30.82385676 62.80586296 -34.6848331 66.54340992 -38.51416016 70.38476562 C-39.21770126 71.08655441 -39.92124237 71.7883432 -40.64610291 72.51139832 C-42.9462594 74.80719188 -45.24278364 77.10657849 -47.5390625 79.40625 C-49.14978698 81.01629992 -50.76065981 82.62620145 -52.37167358 84.23596191 C-55.73703986 87.59985882 -59.1006034 90.96554513 -62.46289062 94.33251953 C-66.76103796 98.63636827 -71.0636657 102.93570542 -75.3676548 107.23371124 C-78.6912562 110.55369043 -82.01246145 113.87605842 -85.33295822 117.19914246 C-86.91817315 118.78502182 -88.50412394 120.37016601 -90.09083939 121.95454407 C-92.31120544 124.17235578 -94.52831579 126.39337342 -96.74462891 128.61523438 C-97.3930928 129.26167404 -98.0415567 129.90811371 -98.70967102 130.57414246 C-102.2645461 134.14542578 -105.59098613 137.79787921 -108.74725914 141.72837067 C-109.16066362 142.14800835 -109.57406811 142.56764603 -110 143 C-110.66 143 -111.32 143 -112 143 C-112 143.66 -112 144.32 -112 145 C-112.66 145 -113.32 145 -114 145 C-114.20625 145.53625 -114.4125 146.0725 -114.625 146.625 C-116.53250426 149.91978009 -119.04819384 152.59363628 -122 155 C-122.66 155 -123.32 155 -124 155 C-124.33 155.99 -124.66 156.98 -125 158 C-126.390625 159.3671875 -126.390625 159.3671875 -128.25 160.875 C-132.33957733 164.33884965 -136.14890864 168.02703283 -139.9375 171.8125 C-140.80713379 172.67560791 -140.80713379 172.67560791 -141.69433594 173.55615234 C-144.71661316 176.49739399 -144.71661316 176.49739399 -147 180 C-149.40253211 179.03091142 -150.76552758 178.33578766 -152.265625 176.1875 C-154.47839404 171.27023547 -155.45756493 167.0405644 -155.53125 161.65234375 C-154.09281168 154.47072889 -149.89451049 149.31014479 -144.78643799 144.30541992 C-143.85638683 143.37024221 -143.85638683 143.37024221 -142.90754676 142.41617203 C-140.8425887 140.34466354 -138.76373413 138.28771097 -136.68457031 136.23046875 C-135.19545503 134.74248255 -133.70722155 133.25361342 -132.21980286 131.76393127 C-128.18981873 127.73280148 -124.14763814 123.71410716 -120.10313129 119.69755554 C-115.87455975 115.49402169 -111.65734427 111.27912606 -107.43890381 107.06542969 C-99.45364845 99.09259708 -91.45825321 91.13001422 -83.45915198 83.17107582 C-74.3509713 74.10763445 -65.25417217 65.03280623 -56.15830469 55.95701027 C-37.4514942 37.29198825 -18.73045733 18.64129005 0 0 Z " fill="#FED377" transform="translate(170,310)" />
<path d="M0 0 C1.11083804 0.94730888 2.22098328 1.89543018 3.33084106 2.84388733 C4.25827212 3.63573221 4.25827212 3.63573221 5.20443916 4.44357395 C9.60218013 8.25561889 13.72018559 12.36543945 17.875 16.4375 C18.35743164 16.89680908 18.83986328 17.35611816 19.33691406 17.8293457 C20.75718981 19.18252369 22.15624395 20.55786503 23.5546875 21.93359375 C24.38468262 22.73853271 25.21467773 23.54347168 26.06982422 24.37280273 C28.47637652 27.64840472 28.88823699 29.96512125 29 34 C26.9375 36.9375 26.9375 36.9375 24 39 C20.9375 39.5 20.9375 39.5 18 39 C16.66666667 38 15.33333333 37 14 36 C11.17368882 35.1639933 11.17368882 35.1639933 8 36 C6.15671526 37.31939629 6.15671526 37.31939629 4.32421875 39.0390625 C3.62248535 39.67408691 2.92075195 40.30911133 2.19775391 40.96337891 C1.47249512 41.63546387 0.74723633 42.30754883 0 43 C-0.70334473 43.64759277 -1.40668945 44.29518555 -2.13134766 44.96240234 C-4.25916089 46.94970424 -6.35077013 48.96966824 -8.4375 51 C-9.15615234 51.67289062 -9.87480469 52.34578125 -10.61523438 53.0390625 C-14.31540135 56.57366285 -14.31540135 56.57366285 -16.74243164 60.99047852 C-17.15583432 63.07271439 -17.15583432 63.07271439 -17 66 C-16.00692179 67.33849671 -15.00642948 68.67151309 -14 70 C-13.54077566 72.8483535 -13.72062788 75.06659275 -14 78 C-14.33 78.66 -14.66 79.32 -15 80 C-17.66134863 81.33067431 -20.14318421 81.39955158 -23.0859375 81.30859375 C-25 81 -25 81 -27.0625 79.4375 C-27.701875 78.963125 -28.34125 78.48875 -29 78 C-33.18740537 78.13468354 -35.49260032 78.6309278 -38.90600586 81.11376953 C-40.29638062 82.4844458 -40.29638062 82.4844458 -41.71484375 83.8828125 C-42.21544815 84.37530487 -42.71605255 84.86779724 -43.23182678 85.37521362 C-44.28024749 86.41521068 -45.32114238 87.46284432 -46.35473633 88.51757812 C-47.93541944 90.12288702 -49.54779946 91.69044964 -51.16601562 93.2578125 C-52.18438763 94.27655493 -53.20073673 95.29732441 -54.21484375 96.3203125 C-55.13386475 97.24086426 -56.05288574 98.16141602 -56.99975586 99.10986328 C-59.29395313 101.9309001 -59.29395313 101.9309001 -59.39282227 105.72607422 C-58.96418606 109.2984866 -58.12977478 110.24904091 -56 113 C-55.5 115.9375 -55.5 115.9375 -56 119 C-58.0625 121.9375 -58.0625 121.9375 -61 124 C-64.32628229 124.0042196 -66.86616432 123.78134768 -69.662323 121.85446167 C-71.3899677 120.3030999 -72.99318221 118.68193158 -74.58984375 116.99609375 C-75.47392662 116.09927635 -75.47392662 116.09927635 -76.37586975 115.18434143 C-78.24437252 113.28240797 -80.09086429 111.36064778 -81.9375 109.4375 C-83.20498029 108.13990714 -84.47384697 106.84366694 -85.74414062 105.54882812 C-88.84569872 102.3813229 -91.92769118 99.19587286 -95 96 C-90.32250899 90.38023756 -85.32878515 85.19228664 -80.14892578 80.03540039 C-79.27998184 79.16631042 -78.4110379 78.29722046 -77.51576233 77.40179443 C-75.15229056 75.03889655 -72.78663472 72.67822739 -70.41994715 70.31855321 C-67.93977074 67.84466319 -65.46245962 65.36790718 -62.98483276 62.89146423 C-58.30150662 58.21123591 -53.61563911 53.53356074 -48.9288348 48.85681576 C-43.58944522 43.52863564 -38.25292295 38.19758763 -32.91663003 32.86630642 C-21.94758925 21.90769491 -10.97498437 10.95265924 0 0 Z " fill="#FD9F60" transform="translate(192,373)" />
<path d="M0 0 C4.58664344 3.83560633 8.94654556 7.80638556 13.15234375 12.0546875 C13.69734024 12.60109894 14.24233673 13.14751038 14.80384827 13.71047974 C16.51746118 15.42962058 18.22753444 17.15223204 19.9375 18.875 C21.10979204 20.05231638 22.28231614 21.22940174 23.45507812 22.40625 C26.30606982 25.26817489 29.15389615 28.13321457 32 31 C27.43852453 36.47313966 22.59258679 41.53954809 17.5390625 46.55859375 C16.74849457 47.34774673 15.95792664 48.13689972 15.1434021 48.94996643 C12.63962374 51.44818661 10.13237525 53.94289044 7.625 56.4375 C5.91773752 58.13974208 4.21070391 59.84221373 2.50390625 61.54492188 C-1.66141898 65.69927363 -5.82959219 69.85075081 -10 74 C-11.11350543 73.05885034 -12.22511525 72.11545765 -13.3359375 71.17114258 C-13.9551709 70.64603592 -14.5744043 70.12092926 -15.21240234 69.57991028 C-18.51658392 66.65961643 -21.41226582 63.33420093 -24.375 60.07421875 C-26.95009309 57.74266496 -26.95009309 57.74266496 -30.65625 57.11328125 C-34.00748622 56.69665875 -34.00748622 56.69665875 -36.5 58.5 C-38.29944605 60.98860758 -38.29944605 60.98860758 -37.8984375 64.31713867 C-36.82548573 68.71536624 -35.36980861 70.31569425 -32.125 73.42578125 C-31.64047363 73.89944626 -31.15594727 74.37311127 -30.65673828 74.86112976 C-29.11811749 76.35981393 -27.56025384 77.83638223 -26 79.3125 C-24.44436604 80.81068704 -22.89295853 82.31310283 -21.34326172 83.81742859 C-19.94163805 85.17379489 -18.52965504 86.51943173 -17.1171875 87.86450195 C-15 90 -15 90 -14 92 C-13.6875 95.375 -13.6875 95.375 -14 99 C-15.625 101.4375 -15.625 101.4375 -18 103 C-20.84294128 103.35462952 -20.84294128 103.35462952 -24 103 C-26.46113586 101.30076599 -26.46113586 101.30076599 -28.88793945 98.88842773 C-29.80521317 97.99006699 -30.72248688 97.09170624 -31.66755676 96.16612244 C-32.65023268 95.17270508 -33.63212213 94.17850922 -34.61328125 93.18359375 C-35.63276666 92.16815264 -36.65314113 91.15360341 -37.67436218 90.13990784 C-39.80981664 88.01329121 -41.93406422 85.87622311 -44.05102539 83.73120117 C-46.75893881 80.98914543 -49.49284365 78.27485677 -52.23577595 75.5678854 C-54.34770855 73.4776906 -56.44507197 71.37334375 -58.53838158 69.26451302 C-59.54066431 68.25824104 -60.54738684 67.25637041 -61.55864906 66.25912285 C-62.973336 64.85976 -64.36666856 63.43890924 -65.7590332 62.01733398 C-66.95433403 60.81487282 -66.95433403 60.81487282 -68.17378235 59.58811951 C-70.4592712 56.34911989 -70.83380452 53.93008395 -71 50 C-69.5 47.5625 -69.5 47.5625 -67 46 C-63.5625 45.5625 -63.5625 45.5625 -60 46 C-59.175 46.515625 -58.35 47.03125 -57.5 47.5625 C-54.99862515 49.2953609 -54.99862515 49.2953609 -51.66880798 48.87232971 C-47.39920085 47.85714844 -45.85221681 46.58196031 -42.79907227 43.48022461 C-42.32987869 43.0119072 -41.86068512 42.54358978 -41.37727356 42.06108093 C-39.8423138 40.5219677 -38.329665 38.96277292 -36.81640625 37.40234375 C-35.75155745 36.32629484 -34.68536904 35.2515701 -33.61790466 34.17811584 C-30.82122144 31.35859864 -28.04303039 28.52153041 -25.26837158 25.68035889 C-22.43014677 22.78059469 -19.57471406 19.89788531 -16.72070312 17.01367188 C-11.13020046 11.3589525 -5.55912774 5.68556604 0 0 Z " fill="#FED377" transform="translate(245,235)" />
<path d="M0 0 C6.03331362 4.98404168 11.5184171 10.41915303 17 16 C12.43852453 21.47313966 7.59258679 26.53954809 2.5390625 31.55859375 C1.74849457 32.34774673 0.95792664 33.13689972 0.1434021 33.94996643 C-2.36037626 36.44818661 -4.86762475 38.94289044 -7.375 41.4375 C-9.08226248 43.13974208 -10.78929609 44.84221373 -12.49609375 46.54492188 C-16.66141898 50.69927363 -20.82959219 54.85075081 -25 59 C-26.1078354 58.05893615 -27.21444803 57.11643273 -28.32055664 56.17333984 C-28.93693497 55.64864105 -29.55331329 55.12394226 -30.18836975 54.58334351 C-32.71791903 52.37254722 -35.07881136 50.01599944 -37.4375 47.625 C-38.30246094 46.75101562 -39.16742188 45.87703125 -40.05859375 44.9765625 C-40.69925781 44.32429688 -41.33992187 43.67203125 -42 43 C-38.32975492 39.3256809 -34.65095308 35.66003777 -30.97039795 31.99604797 C-27.74410091 28.78309425 -24.52041533 25.56752588 -21.296875 22.35180664 C-19.59268118 20.65267705 -17.88759611 18.95444092 -16.18164062 17.25708008 C-13.71771548 14.80522835 -11.25698441 12.35021078 -8.796875 9.89453125 C-8.0302655 9.13308304 -7.26365601 8.37163483 -6.47381592 7.58711243 C-5.76928284 6.88265488 -5.06474976 6.17819733 -4.33886719 5.45239258 C-3.71663269 4.83237869 -3.09439819 4.21236481 -2.45330811 3.57356262 C-0.90680179 2.04553522 -0.90680179 2.04553522 0 0 Z " fill="#FDBA6D" transform="translate(260,250)" />
<path d="M0 0 C3.5625 0.4375 3.5625 0.4375 6 2 C7.2684375 2.7115625 7.2684375 2.7115625 8.5625 3.4375 C9.779375 3.128125 10.99625 2.81875 12.25 2.5 C14.2890625 2.1328125 14.2890625 2.1328125 16.5625 2.4375 C20.65840707 5.19502617 23.81224769 8.33533042 26.5625 12.4375 C26.7265625 14.60546875 26.7265625 14.60546875 26.25 16.5625 C25.9096875 18.480625 25.9096875 18.480625 25.5625 20.4375 C26.71579974 22.3695265 26.71579974 22.3695265 28.49609375 24.15625 C29.14199463 24.85250488 29.78789551 25.54875977 30.45336914 26.26611328 C33.90849634 29.82322652 37.39855402 33.33872798 40.9375 36.8125 C42.36425991 38.21382747 43.78885507 39.6173635 45.2109375 41.0234375 C45.83145996 41.6323584 46.45198242 42.2412793 47.09130859 42.86865234 C48.5625 44.4375 48.5625 44.4375 49.5625 46.4375 C49.875 49.8125 49.875 49.8125 49.5625 53.4375 C47.9375 55.875 47.9375 55.875 45.5625 57.4375 C42.71955872 57.79212952 42.71955872 57.79212952 39.5625 57.4375 C37.10136414 55.73826599 37.10136414 55.73826599 34.67456055 53.32592773 C33.75728683 52.42756699 32.84001312 51.52920624 31.89494324 50.60362244 C30.91226732 49.61020508 29.93037787 48.61600922 28.94921875 47.62109375 C27.92973334 46.60565264 26.90935887 45.59110341 25.88813782 44.57740784 C23.75268336 42.45079121 21.62843578 40.31372311 19.51147461 38.16870117 C16.80356119 35.42664543 14.06965635 32.71235677 11.32672405 30.0053854 C9.21479145 27.9151906 7.11742803 25.81084375 5.02411842 23.70201302 C4.02183569 22.69574104 3.01511316 21.69387041 2.00385094 20.69662285 C0.589164 19.29726 -0.80416856 17.87640924 -2.1965332 16.45483398 C-2.99340042 15.65319321 -3.79026764 14.85155243 -4.61128235 14.02561951 C-6.8967712 10.78661989 -7.27130452 8.36758395 -7.4375 4.4375 C-5.30760965 0.97642817 -4.03040195 0.51296025 0 0 Z " fill="#FDB96D" transform="translate(181.4375,280.5625)" />
<path d="M0 0 C10.34875991 8.44796727 10.34875991 8.44796727 14 14 C14.6875 17.75 14.6875 17.75 14 21 C12.375 23.4375 12.375 23.4375 10 25 C7.3125 25.53515625 7.3125 25.53515625 4 25 C1.22396086 22.96451433 -1.04320389 20.52165007 -3.375 18 C-4.01566406 17.33226562 -4.65632812 16.66453125 -5.31640625 15.9765625 C-6.89200192 14.33041777 -8.45190719 12.67196565 -10 11 C-9.38382813 10.54496094 -8.76765625 10.08992188 -8.1328125 9.62109375 C-4.43487804 6.81039265 -1.97915134 4.19474997 0 0 Z " fill="#FA9D5F" transform="translate(217,313)" />
</svg>
